<?xml version="1.0" standalone="no"?>
<!DOCTYPE svg PUBLIC "-//W3C//DTD SVG 1.1//EN" "http://www.w3.org/Graphics/SVG/1.1/DTD/svg11.dtd" >
<svg xmlns="http://www.w3.org/2000/svg" xmlns:xlink="http://www.w3.org/1999/xlink" version="1.1">
<metadata>
Created by FontForge 20170910 at Thu May  1 15:19:23 2014
 By Jimmy Wärting
Typeface (c)NALGames. 2014. All Rights Reserved
</metadata>
<defs>
<font id="Questrian" horiz-adv-x="1399" >
  <font-face 
    font-family="Questrian"
    font-weight="400"
    font-stretch="normal"
    units-per-em="2048"
    panose-1="2 0 5 0 0 0 0 0 0 0"
    ascent="1638"
    descent="-410"
    x-height="1406"
    cap-height="1415"
    bbox="-142 -482 3135 1898"
    underline-thickness="150"
    underline-position="-292"
    unicode-range="U+001D-F002"
  />
<missing-glyph horiz-adv-x="3216" 
d="M1834 803l-79 252l-100 -278zM2252 187q-92 -2 -87 -118q5 -108 95 -111q85 7 86 119q-6 111 -94 110zM1578 122l9 -154l-144 -9v153zM1372 380l-11 -410h-462l-542 979l20 -962l-358 -9l-13 1436l453 13l571 -1005l7 1035l366 13l-17 -621l223 606l309 29l208 -658
l32 762l341 63l-58 -1043l694 4l-32 -369l-746 23q81 -44 86 -178q6 -230 -183 -234q-150 -6 -186 129q-29 -141 -181 -146q-225 -7 -223 199l124 -8q9 -74 88 -76q54 7 65 40q14 36 -65 59q-212 50 -210 174q7 175 188 182q59 2 102 -11l-57 180l-340 -46l-57 -158z
M2108 388l-106 -9q82 -47 81 -172l-134 8q4 77 -78 71q-59 -5 -66.5 -39.5t32.5 -57t136 -48.5q65 -25 90 -72q6 160 106 203l-66 2z" />
    <glyph glyph-name=".notdef" horiz-adv-x="3216" 
d="M1834 803l-79 252l-100 -278zM2252 187q-92 -2 -87 -118q5 -108 95 -111q85 7 86 119q-6 111 -94 110zM1578 122l9 -154l-144 -9v153zM1372 380l-11 -410h-462l-542 979l20 -962l-358 -9l-13 1436l453 13l571 -1005l7 1035l366 13l-17 -621l223 606l309 29l208 -658
l32 762l341 63l-58 -1043l694 4l-32 -369l-746 23q81 -44 86 -178q6 -230 -183 -234q-150 -6 -186 129q-29 -141 -181 -146q-225 -7 -223 199l124 -8q9 -74 88 -76q54 7 65 40q14 36 -65 59q-212 50 -210 174q7 175 188 182q59 2 102 -11l-57 180l-340 -46l-57 -158z
M2108 388l-106 -9q82 -47 81 -172l-134 8q4 77 -78 71q-59 -5 -66.5 -39.5t32.5 -57t136 -48.5q65 -25 90 -72q6 160 106 203l-66 2z" />
    <glyph glyph-name=".null" horiz-adv-x="0" 
 />
    <glyph glyph-name=".null" horiz-adv-x="0" 
 />
    <glyph glyph-name="nonmarkingreturn" horiz-adv-x="508" 
 />
    <glyph glyph-name="space" unicode=" " horiz-adv-x="508" 
 />
    <glyph glyph-name="space" unicode="&#xa0;" horiz-adv-x="508" 
 />
    <glyph glyph-name="exclam" unicode="!" horiz-adv-x="485" 
d="M381 344v-346l-372 -28l-1 374h373zM8 459l-3 968l375 16l1 -984h-373z" />
    <glyph glyph-name="quotedbl" unicode="&#x22;" horiz-adv-x="869" 
d="M365 1412q-9 -312 -64 -547l-227 -4q-64 213 -72 542zM781 1406q-26 -311 -95 -542l-227 9q-51 216 -41 545z" />
    <glyph glyph-name="numbersign" unicode="#" horiz-adv-x="1386" 
d="M187 611v214l-189 -3l4 338l184 6l-1 269l375 16v-273l155 5l-1 261l375 16v-264l195 6l-5 -359l-190 -3l1 -200l198 7l-5 -359l-193 -3v-270l-372 -28l-1 292l-156 -3v-270l-372 -28l-1 292l-186 -3l4 338zM560 831l1 -208l155 5v206z" />
    <glyph glyph-name="dollar" unicode="$" horiz-adv-x="1179" 
d="M650 471l-4 -216q75 27 94 89q30 74 -90 127zM456 1118q-83 -26 -97 -91q-21 -93 87 -153q3 -2 5 -4zM446 534q-448 140 -443 436q19 446 458 483l2 121l206 9l-2 -133q442 -54 439 -530l-358 22q5 136 -87 175l-6 -328q69 -22 155 -45q261 -100 285 -340
q-42 -436 -454 -474l-2 -107l-205 -22l2 132q-441 55 -438 530l332 -22q17 -129 112 -176z" />
    <glyph glyph-name="percent" unicode="%" horiz-adv-x="1271" 
d="M-68 -47l939 1570l347 -145l-947 -1580zM361 1403l4 -375l-350 -5l-5 380h351zM1177 383l4 -375l-350 -5l-5 380h351z" />
    <glyph glyph-name="ampersand" unicode="&#x26;" horiz-adv-x="1369" 
d="M942 48q-121 -99 -406 -117q-539 -7 -551 462q5 227 132 339q-59 106 -63 264q-1 437 480 443q426 8 514 -316l-324 -125q-29 79 -137 85l-72 2q-133 2 -133 -128q16 -107 108 -112h273v84l333 4l-1 -79l166 -1l-4 -308l-168 -7q-27 -219 171 -238l-6 -321
q-193 -3 -312 69zM480 509q-162 -3 -154 -134q10 -108 191 -123q266 34 246 268z" />
    <glyph glyph-name="quotesingle" unicode="'" horiz-adv-x="485" 
d="M374 1412q-9 -312 -64 -547l-227 -4q-64 213 -72 542z" />
    <glyph glyph-name="parenleft" unicode="(" horiz-adv-x="669" 
d="M578 1606l-13 -354q-235 -42 -230 -567q9 -485 242 -550v-362q-578 -26 -600 899q26 934 601 934z" />
    <glyph glyph-name="parenright" unicode=")" horiz-adv-x="669" 
d="M-23 -228l13 354q235 42 230 567q-9 485 -242 550v362q578 26 600 -899q-26 -934 -601 -934z" />
    <glyph glyph-name="asterisk" unicode="*" horiz-adv-x="972" 
d="M579 754l6 -199l-265 -8l-3 204l-178 -107l-131 218l180 111l-183 102l123 221l182 -98l-3 212l253 4l6 -209l174 107l139 -225l-172 -103l177 -96l-126 -234z" />
    <glyph glyph-name="plus" unicode="+" horiz-adv-x="1070" 
d="M299 511l-290 -7l-8 372l294 4l-4 294l360 4l7 -294l303 4l5 -360l-298 -7l7 -299l-372 -8z" />
    <glyph glyph-name="comma" unicode="," horiz-adv-x="485" 
d="M169 -18l-160 -12l-8 372l375 16l5 -360l-10 -1q5 -245 -330 -285l-35 141q155 16 163 129z" />
    <glyph glyph-name="hyphen" unicode="-" horiz-adv-x="972" 
d="M9 504l-8 372l862 12l5 -360z" />
    <glyph glyph-name="hyphen" unicode="&#xad;" horiz-adv-x="972" 
d="M9 504l-8 372l862 12l5 -360z" />
    <glyph glyph-name="period" unicode="." horiz-adv-x="485" 
d="M9 -30l-8 372l375 16l5 -360z" />
    <glyph glyph-name="slash" unicode="/" horiz-adv-x="677" 
d="M-20 -195l341 1797l376 -16l-346 -1809z" />
    <glyph glyph-name="zero" unicode="0" 
d="M637 1099q-324 -8 -306 -414q17 -379 332 -392q301 26 302 418q-18 393 -328 388zM1306 750q21 -806 -643 -819q-664 -26 -690 741q21 781 677 781q627 9 656 -703z" />
    <glyph glyph-name="one" unicode="1" horiz-adv-x="698" 
d="M218 1431l375 16l1 -1445l-372 -28l-3 1018l-131 -114l-90 282z" />
    <glyph glyph-name="two" unicode="2" horiz-adv-x="1179" 
d="M295 744q257 69 364.5 129.5t87 153.5t-179.5 105q-218 17 -210 -190l-358 -22q-4 555 599 536q484 -17 505 -486q5 -333 -565 -469q-175 -34 -185 -178h744l-5 -342l-1085 21q-26 303 21 480.5t267 261.5z" />
    <glyph glyph-name="three" unicode="3" horiz-adv-x="1181" 
d="M491 1083q-155 -8 -147 -167l-338 5q-8 489 491 518l124 9q395 -49 403 -452q-4 -158 -63 -264q127 -112 132 -339q-12 -469 -500 -462l-118 7q-498 24 -490 512l338 5q-9 -171 170 -197l119 -6q130 15 140 123q8 131 -154 134l-132 15l-140 314l262 7q92 5 108 112
q0 130 -133 128z" />
    <glyph glyph-name="four" unicode="4" horiz-adv-x="1369" 
d="M1030 520l-16 -583l-346 -13l8 569l-670 -9l133 926l323 17l-93 -602l308 4l13 595l366 13l-17 -590l237 23l-26 -333z" />
    <glyph glyph-name="five" unicode="5" horiz-adv-x="1179" 
d="M567 238q201 -5 207 106q26 370 -464 161l-310 160l12 735l1085 41l-12 -333l-765 -36l-8 -262q746 261 783 -406q-44 -459 -498 -477q-499 -16 -582 362l334 92q67 -140 218 -143z" />
    <glyph glyph-name="six" unicode="6" horiz-adv-x="1179" 
d="M3 970q20 469 504 486q603 19 599 -536l-358 22q8 207 -210 190q-227 -12 -226 -322q797 8 783 -406q-44 -459 -498 -477q-603 -19 -599 536q4 449 5 507zM308 515q48 -273 259 -277q201 -5 207 106q30 191 -466 171z" />
    <glyph glyph-name="seven" unicode="7" horiz-adv-x="1173" 
d="M-11 1412l1077 17l8 -346q-640 -539 -705 -1103l-371 1q4 513 589 1098l-589 -30z" />
    <glyph glyph-name="eight" unicode="8" horiz-adv-x="1173" 
d="M575 858q92 5 108 112q0 130 -133 128l-100 -4q-133 9 -133 -121q16 -108 108 -118zM608 1461q395 -49 403 -452q-4 -158 -63 -264q127 -112 132 -339q-12 -469 -500 -462l-160 -2q-488 20 -500 489q5 227 132 332q-59 109 -63 267q8 403 403 430zM599 265
q130 15 140 123q8 131 -154 134l-170 -2q-162 6 -154 -126q10 -108 140 -130z" />
    <glyph glyph-name="nine" unicode="9" horiz-adv-x="1179" 
d="M1101 413q-20 -469 -504 -486q-603 -19 -599 536l358 -22q-8 -207 210 -190q227 12 205 271q-776 -8 -762 406q-3 510 498 528q603 19 599 -536q-4 -449 -5 -507zM767 817q32 324 -230 328q-188 -29 -194 -140q-43 -208 424 -188z" />
    <glyph glyph-name="colon" unicode=":" horiz-adv-x="485" 
d="M5 201l-8 372l375 16l5 -360zM386 1172l-5 -360l-375 16l8 372z" />
    <glyph glyph-name="semicolon" unicode=";" horiz-adv-x="485" 
d="M6 840l4 360l376 -16l-9 -372zM169 225l-160 -12l-8 372l375 16l5 -360l-10 -1q5 -245 -330 -285l-35 141q155 16 163 129z" />
    <glyph glyph-name="semicolon" unicode="&#x37e;" horiz-adv-x="485" 
d="M6 840l4 360l376 -16l-9 -372zM169 225l-160 -12l-8 372l375 16l5 -360l-10 -1q5 -245 -330 -285l-35 141q155 16 163 129z" />
    <glyph glyph-name="less" unicode="&#x3c;" horiz-adv-x="1249" 
d="M426 683l710 -269l-4 -335l-1143 449l11 330l1154 416l-4 -332z" />
    <glyph glyph-name="equal" unicode="=" horiz-adv-x="1083" 
d="M5 201l-8 372l982 33l5 -360zM993 1189l-5 -360l-982 -1l8 372z" />
    <glyph glyph-name="greater" unicode="&#x3e;" horiz-adv-x="1249" 
d="M717 670l-710 269l4 335l1143 -449l-11 -330l-1154 -416l4 332z" />
    <glyph glyph-name="question" unicode="?" horiz-adv-x="1179" 
d="M575 327l-5 -342l-350 17l-1 326zM470 744q297 190 276.5 283t-179.5 105q-218 17 -210 -190l-358 -22q-4 555 599 536q484 -17 505 -422q1 -219 -188 -331t-325 -266l-358 8q26 160 238 299z" />
    <glyph glyph-name="at" unicode="@" 
d="M689 626q120 8 120 128q-4 115 -120 115q-98 13 -107 -119q-4 -120 107 -124zM973 1037q-109 147 -306 145q-396 0 -413 -435q-9 -492 396 -513q340 30 357 143l294 -84q-82 -336 -647 -327q-656 0 -677 781q21 702 690 706q552 -12 618 -486t-582 -551
q-308 -21 -321 334q5 290 291 299q87 9 182 -28t151 -216q47 96 -33 232z" />
    <glyph glyph-name="A" unicode="A" horiz-adv-x="1459" 
d="M436 175l-76 -210l-388 22l522 1414l409 39l454 -1436l-388 -34l-83 266zM792 537l-105 334l-133 -369z" />
    <glyph glyph-name="B" unicode="B" horiz-adv-x="1181" 
d="M555 1100l-211 -1l1 -241l237 -13q97 5 114 119q0 138 -141 136zM344 531l5 -251l256 -28q137 16 147 130q9 138 -162 141zM0 -4l14 1475l607 -23q395 -49 403 -452q-4 -158 -63 -264q127 -112 132 -339q-12 -469 -500 -462z" />
    <glyph glyph-name="C" unicode="C" 
d="M654 1453q599 9 655 -660l-349 -21q-26 332 -319 327q-324 -8 -306 -414q17 -379 332 -392q301 26 310 293l341 39q13 -608 -651 -694q-664 -26 -690 741q21 781 677 781z" />
    <glyph glyph-name="D" unicode="D" horiz-adv-x="1365" 
d="M580 1452q664 26 690 -741q-16 -733 -671 -718l-576 12l-17 1431zM611 332q324 8 301 366q-17 379 -332 398l-199 -9l-4 -768z" />
    <glyph glyph-name="E" unicode="E" horiz-adv-x="1218" 
d="M402 894l691 20l-35 -332l-676 -31l-13 -210l763 4l-35 -405l-1099 34l57 1436l1091 21l-31 -336l-700 -23z" />
    <glyph glyph-name="F" unicode="F" horiz-adv-x="1207" 
d="M402 503l31 -563l-375 69l-60 1444l1099 34l35 -405l-763 4l13 -240l672 55l35 -332z" />
    <glyph glyph-name="G" unicode="G" 
d="M667 -34q-669 4 -690 706q21 781 677 781q599 9 655 -540l-353 27q-22 164 -315 159q-324 -8 -306 -414q17 -379 332 -392q245 -2 264 170l-342 20l17 319l694 -22q9 -823 -633 -814z" />
    <glyph glyph-name="H" unicode="H" horiz-adv-x="1369" 
d="M347 1431l9 -521l544 39l17 500l366 13l-42 -1500l-346 -13v612l-539 -30l21 -544l-358 -9l-13 1436z" />
    <glyph glyph-name="I" unicode="I" horiz-adv-x="485" 
d="M9 -30l-4 1429l375 16l1 -1417z" />
    <glyph glyph-name="J" unicode="J" horiz-adv-x="878" 
d="M212 383q229 17 229 345l9 699h349l-5 -703q-17 -703 -560 -707q-132 1 -237 32l11 430q67 -94 204 -96z" />
    <glyph glyph-name="K" unicode="K" horiz-adv-x="1382" 
d="M359 350l-2 -352l-359 -13l13 1457l354 -5l-3 -617l521 600l448 13l-518 -577l496 -871l-448 4l-300 586z" />
    <glyph glyph-name="L" unicode="L" horiz-adv-x="1192" 
d="M433 1487l-64 -1146l763 4l-35 -405l-1099 34l60 1444z" />
    <glyph glyph-name="M" unicode="M" horiz-adv-x="1493" 
d="M690 733l220 689l482 4l15 -1448l-367 -4v923l-167 -641h-351l-166 624l8 -918l-371 -18l-15 1487l447 -1z" />
    <glyph glyph-name="N" unicode="N" horiz-adv-x="1498" 
d="M357 949l20 -962l-358 -9l-13 1436l453 13l571 -1005l7 1035l366 13l-42 -1500h-462z" />
    <glyph glyph-name="O" unicode="O" 
d="M637 1099q-324 -8 -306 -414q17 -379 332 -392q301 26 302 418q-18 393 -328 388zM1306 750q21 -806 -643 -819q-664 -26 -690 741q21 781 677 781q627 9 656 -703z" />
    <glyph glyph-name="P" unicode="P" horiz-adv-x="1173" 
d="M624 1111l-259 -27v-227l253 -14q129 2 139 110q12 144 -133 158zM365 516l1 -580l-370 90l18 1445l607 -23q472 -15 481 -456q-12 -469 -504 -476h-233z" />
    <glyph glyph-name="Q" unicode="Q" 
d="M930 -17q-128 -53 -300 -53q-628 -9 -656 703q-21 806 643 819q664 26 690 -741q-9 -324 -127 -513l154 -207l-262 -210zM729 269l-248 352l263 164l195 -263q14 77 10 176q-17 397 -332 410q-301 -26 -302 -436q18 -419 328 -414q46 1 86 11z" />
    <glyph glyph-name="R" unicode="R" horiz-adv-x="1179" 
d="M624 1094l-259 -10v-227l252 -27q130 15 140 123q12 144 -133 141zM512 512l-147 4l-12 -545l-357 -18l18 1492l607 -5q472 -7 481 -448q-8 -320 -241 -428q125 -213 249 -611l-375 -22q-115 426 -223 581z" />
    <glyph glyph-name="S" unicode="S" horiz-adv-x="1179" 
d="M3 970q20 469 504 486q603 19 599 -536l-358 22q8 207 -210 190q-159 -12 -179.5 -105t87.5 -153.5t364 -129.5q261 -100 285 -340q-44 -459 -498 -477q-603 -19 -599 536l332 -22q26 -199 237 -203q145 16 173 106q39 95 -173 157q-570 136 -564 469z" />
    <glyph glyph-name="T" unicode="T" horiz-adv-x="1279" 
d="M6 1402l1184 25l-17 -349l-432 -13l39 -1108l-350 -39l-35 1134l-402 -30z" />
    <glyph glyph-name="U" unicode="U" horiz-adv-x="1283" 
d="M338 1397l-4 -711q13 -320 267 -324q229 17 229 345l9 699h349l-5 -703q-17 -703 -560 -707q-625 4 -625 685l8 725z" />
    <glyph glyph-name="V" unicode="V" horiz-adv-x="1408" 
d="M1325 1405l-421 -1439l-409 -39l-502 1500l367 4l342 -991l273 987z" />
    <glyph glyph-name="W" unicode="W" horiz-adv-x="1788" 
d="M856 471l-93 -488l-422 -4l-348 1448l367 4l201 -919l116 624h351l114 -624l202 918l371 18l-366 -1504l-409 39z" />
    <glyph glyph-name="X" unicode="X" horiz-adv-x="1284" 
d="M583 332l-196 -355l-385 17l379 724l-379 724l385 17l196 -355l175 333l449 22l-410 -741l410 -741l-449 22z" />
    <glyph glyph-name="Y" unicode="Y" horiz-adv-x="1233" 
d="M337 1429l234 -487l248 470l439 43l-516 -902l-13 -568l-359 -25l17 580l-414 880z" />
    <glyph glyph-name="Z" unicode="Z" horiz-adv-x="1124" 
d="M-11 1412l1077 17l8 -346l-635 -748l610 -8l-9 -385l-1042 39l4 372l615 718l-619 -22z" />
    <glyph glyph-name="bracketleft" unicode="[" horiz-adv-x="707" 
d="M365 170h263l-31 -363l-603 -4l31 1782l591 17l-31 -336l-200 -19z" />
    <glyph glyph-name="backslash" unicode="\" horiz-adv-x="677" 
d="M325 -223l-345 1809l375 16l342 -1797z" />
    <glyph glyph-name="bracketright" unicode="]" horiz-adv-x="707" 
d="M257 1235h-263l31 363l603 4l-31 -1782l-591 -17l31 336l200 19z" />
    <glyph glyph-name="asciicircum" unicode="^" horiz-adv-x="822" 
d="M298 1228l-74 -171l-213 -2l182 357h210l181 -357l-213 2z" />
    <glyph glyph-name="underscore" unicode="_" horiz-adv-x="1218" 
d="M18 337l1105 -34l-26 -363l-1099 34z" />
    <glyph glyph-name="grave" unicode="`" horiz-adv-x="570" 
d="M374 1412l85 -377l-227 -4l-221 372z" />
    <glyph glyph-name="a" unicode="a" horiz-adv-x="1459" 
d="M436 175l-76 -210l-388 22l522 1414l409 39l454 -1436l-388 -34l-83 266zM792 537l-105 334l-133 -369z" />
    <glyph glyph-name="b" unicode="b" horiz-adv-x="1181" 
d="M555 1100l-211 -1l1 -241l237 -13q97 5 114 119q0 138 -141 136zM344 531l5 -251l256 -28q137 16 147 130q9 138 -162 141zM0 -4l14 1475l607 -23q395 -49 403 -452q-4 -158 -63 -264q127 -112 132 -339q-12 -469 -500 -462z" />
    <glyph glyph-name="c" unicode="c" 
d="M654 1453q599 9 655 -660l-349 -21q-26 332 -319 327q-324 -8 -306 -414q17 -379 332 -392q301 26 310 293l341 39q13 -608 -651 -694q-664 -26 -690 741q21 781 677 781z" />
    <glyph glyph-name="d" unicode="d" horiz-adv-x="1365" 
d="M580 1452q664 26 690 -741q-16 -733 -671 -718l-576 12l-17 1431zM611 332q324 8 301 366q-17 379 -332 398l-199 -9l-4 -768z" />
    <glyph glyph-name="e" unicode="e" horiz-adv-x="1218" 
d="M402 894l691 20l-35 -332l-676 -31l-13 -210l763 4l-35 -405l-1099 34l57 1436l1091 21l-31 -336l-700 -23z" />
    <glyph glyph-name="f" unicode="f" horiz-adv-x="1207" 
d="M402 503l31 -563l-375 69l-60 1444l1099 34l35 -405l-763 4l13 -240l672 55l35 -332z" />
    <glyph glyph-name="g" unicode="g" 
d="M667 -34q-669 4 -690 706q21 781 677 781q599 9 655 -540l-353 27q-22 164 -315 159q-324 -8 -306 -414q17 -379 332 -392q245 -2 264 170l-342 20l17 319l694 -22q9 -823 -633 -814z" />
    <glyph glyph-name="h" unicode="h" horiz-adv-x="1369" 
d="M347 1431l9 -521l544 39l17 500l366 13l-42 -1500l-346 -13v612l-539 -30l21 -544l-358 -9l-13 1436z" />
    <glyph glyph-name="i" unicode="i" horiz-adv-x="485" 
d="M9 -30l-4 1457l375 16l1 -1445z" />
    <glyph glyph-name="j" unicode="j" horiz-adv-x="878" 
d="M212 383q229 17 229 345l9 699h349l-5 -703q-17 -703 -560 -707q-132 1 -237 32l11 430q67 -94 204 -96z" />
    <glyph glyph-name="k" unicode="k" horiz-adv-x="1382" 
d="M359 350l-2 -352l-359 -13l13 1457l354 -5l-3 -617l521 600l448 13l-518 -577l496 -871l-448 4l-300 586z" />
    <glyph glyph-name="l" unicode="l" horiz-adv-x="1192" 
d="M433 1487l-64 -1146l763 4l-35 -405l-1099 34l60 1444z" />
    <glyph glyph-name="m" unicode="m" horiz-adv-x="1493" 
d="M690 733l220 689l482 4l15 -1448l-367 -4v923l-167 -641h-351l-166 624l8 -918l-371 -18l-15 1487l447 -1z" />
    <glyph glyph-name="n" unicode="n" horiz-adv-x="1498" 
d="M357 949l20 -962l-358 -9l-13 1436l453 13l571 -1005l7 1035l366 13l-42 -1500h-462z" />
    <glyph glyph-name="o" unicode="o" 
d="M637 1099q-324 -8 -306 -414q17 -379 332 -392q301 26 302 418q-18 393 -328 388zM1306 750q21 -806 -643 -819q-664 -26 -690 741q21 781 677 781q627 9 656 -703z" />
    <glyph glyph-name="p" unicode="p" horiz-adv-x="1173" 
d="M624 1111l-259 -27v-227l253 -14q129 2 139 110q12 144 -133 158zM365 516l1 -580l-370 90l18 1445l607 -23q472 -15 481 -456q-12 -469 -504 -476h-233z" />
    <glyph glyph-name="q" unicode="q" 
d="M930 -17q-128 -53 -300 -53q-628 -9 -656 703q-21 806 643 819q664 26 690 -741q-9 -324 -127 -513l154 -207l-262 -210zM729 269l-248 352l263 164l195 -263q14 77 10 176q-17 397 -332 410q-301 -26 -302 -436q18 -419 328 -414q46 1 86 11z" />
    <glyph glyph-name="r" unicode="r" horiz-adv-x="1179" 
d="M624 1094l-259 -10v-227l252 -27q130 15 140 123q12 144 -133 141zM512 512l-147 4l-12 -545l-357 -18l18 1492l607 -5q472 -7 481 -448q-8 -320 -241 -428q125 -213 249 -611l-375 -22q-115 426 -223 581z" />
    <glyph glyph-name="s" unicode="s" horiz-adv-x="1179" 
d="M3 970q20 469 504 486q603 19 599 -536l-358 22q8 207 -210 190q-159 -12 -179.5 -105t87.5 -153.5t364 -129.5q261 -100 285 -340q-44 -459 -498 -477q-603 -19 -599 536l332 -22q26 -199 237 -203q145 16 173 106q39 95 -173 157q-570 136 -564 469z" />
    <glyph glyph-name="t" unicode="t" horiz-adv-x="1279" 
d="M6 1402l1184 25l-17 -349l-432 -13l39 -1108l-350 -39l-35 1134l-402 -30z" />
    <glyph glyph-name="u" unicode="u" horiz-adv-x="1283" 
d="M338 1397l-4 -711q13 -320 267 -324q229 17 229 345l9 699h349l-5 -703q-17 -703 -560 -707q-625 4 -625 685l8 725z" />
    <glyph glyph-name="v" unicode="v" horiz-adv-x="1408" 
d="M1325 1405l-421 -1439l-409 -39l-502 1500l367 4l342 -991l273 987z" />
    <glyph glyph-name="w" unicode="w" horiz-adv-x="1788" 
d="M856 471l-93 -488l-422 -4l-348 1448l367 4l201 -919l116 624h351l114 -624l202 918l371 18l-366 -1504l-409 39z" />
    <glyph glyph-name="x" unicode="x" horiz-adv-x="1284" 
d="M583 332l-196 -355l-385 17l379 724l-379 724l385 17l196 -355l175 333l449 22l-410 -741l410 -741l-449 22z" />
    <glyph glyph-name="y" unicode="y" horiz-adv-x="1233" 
d="M337 1429l234 -487l248 470l439 43l-516 -902l-13 -568l-359 -25l17 580l-414 880z" />
    <glyph glyph-name="z" unicode="z" horiz-adv-x="1124" 
d="M-11 1412l1077 17l8 -346l-635 -748l610 -8l-9 -385l-1042 39l4 372l615 718l-619 -22z" />
    <glyph glyph-name="braceleft" unicode="{" horiz-adv-x="823" 
d="M527 363q59 -198 202 -238v-362q-466 -21 -551 525q-4 187 -181 207l5 367q134 -16 167 175q116 559 561 559l-13 -354q-143 -26 -197 -232h3q-7 -205 -106 -329q100 -119 110 -318z" />
    <glyph glyph-name="bar" unicode="|" horiz-adv-x="487" 
d="M11 -226l-4 1819l375 16l1 -1807z" />
    <glyph glyph-name="braceright" unicode="}" horiz-adv-x="823" 
d="M200 996q-59 197 -202 237v362q466 21 551 -524q4 -188 181 -208l-5 -367q-134 16 -167 -175q-116 -559 -561 -559l13 354q143 26 197 232h-3q7 205 106 329q-100 120 -110 319z" />
    <glyph glyph-name="asciitilde" unicode="~" horiz-adv-x="972" 
d="M2 877q202 129 384.5 18.5t471.5 -13.5l9 -356q-312 -82 -480 -7.5t-385 -21.5v380z" />
    <glyph glyph-name="exclamdown" unicode="&#xa1;" horiz-adv-x="485" 
d="M5 650v346l372 28l1 -374h-373zM378 535l3 -968l-375 -16l-1 984h373z" />
    <glyph glyph-name="cent" unicode="&#xa2;" 
d="M338 -2q-329 149 -347 684q20 749 624 780l29 150l376 -16l-36 -191q300 -138 339 -602l-349 -21q-11 138 -68 218l-129 -681q207 56 214 277l341 39q13 -597 -627 -691l-30 -157l-372 28zM545 1092q-211 -67 -196 -397q7 -165 71 -261z" />
    <glyph glyph-name="sterling" unicode="&#xa3;" horiz-adv-x="1288" 
d="M544 298h633l15 -318l-1182 6l-5 342l192 -5q-18 86 -64 174l-128 1v313h68q-7 79 -6 159q21 469 505 486q603 19 599 -536l-358 22q8 207 -210 190q-159 -12 -179.5 -105t-17.5 -140.5t9 -75.5h581l15 -318h-507q30 -97 40 -195z" />
    <glyph glyph-name="currency" unicode="&#xa4;" horiz-adv-x="1080" 
d="M493 956q-206 -5 -194 -264q11 -241 211 -249q192 17 192 266q-11 250 -209 247zM888 474l134 -131l-152 -155l-105 102q-97 -74 -255 -77q-174 -7 -279 72l-98 -99l-155 153l128 129q-31 92 -35 216q4 147 43 251l-137 135l152 155l116 -114q100 70 257 70
q156 2 253 -65l111 111l154 -153l-136 -137q30 -86 35 -203q4 -152 -31 -260z" />
    <glyph glyph-name="yen" unicode="&#xa5;" horiz-adv-x="1141" 
d="M635 122l-3 -137l-305 -25l4 169l-270 7l16 227l260 -6l1 39l-277 7l16 227l230 -6l-318 796l310 9l199 -487l210 470l374 43l-409 -840l267 -6l-20 -227l-280 7l-1 -40l301 -7l-20 -227z" />
    <glyph glyph-name="brokenbar" unicode="&#xa6;" horiz-adv-x="487" 
d="M2 327.225l-4 782.156l375 6.87988l1 -776.996zM2 -171.997l-4 782.156l375 6.87988l1 -776.996z" />
    <glyph glyph-name="section" unicode="&#xa7;" horiz-adv-x="926" 
d="M714 418q81 -69 91 -181q-33 -336 -364 -349q-441 -13 -438 392l243 -16q19 -146 173 -148q106 12 127 77q28 70 -127 115q-81 19 -146 44q-37 11 -67 29q-203 100 -200 270q7 163 91 251q-88 81 -86 194q15 342 369 355q441 14 438 -392l-262 16q6 152 -153 139
q-117 -9 -132 -77t64 -112q17 -9 39 -19h1q416 13 424 -290q33 -157 -85 -298zM368 796q-138 -9 -102 -104q-5 -21 0 -40q10 -42 64 -72q63 -35 197 -74q92 119 47.5 199t-206.5 91z" />
    <glyph glyph-name="dieresis" unicode="&#xa8;" horiz-adv-x="771" 
d="M7 1098l-6 294l297 13l3 -285zM377 1107l-6 294l297 13l3 -285z" />
    <glyph glyph-name="copyright" unicode="&#xa9;" 
d="M626 1241q-448 -11 -423 -572q24 -524 459 -542q416 36 418 578q-25 543 -454 536zM1306 750q21 -806 -643 -819q-664 -26 -690 741q21 781 677 781q627 9 656 -703zM647 1071q290 4 318 -320l-170 -10q-12 161 -154 158q-157 -3 -148 -200q8 -184 160 -190
q146 12 151 142l165 19q6 -295 -316 -337q-321 -12 -334 360q10 378 328 378z" />
    <glyph glyph-name="ordfeminine" unicode="&#xaa;" horiz-adv-x="635" 
d="M157 934l-30 -84l-155 9l209 565l163 16l182 -574l-155 -14l-33 106zM300 1079l-42 133l-53 -147z" />
    <glyph glyph-name="guillemotleft" unicode="&#xab;" horiz-adv-x="1111" 
d="M211 698l266 -284l-4 -335l-484 449l11 330l495 416l-4 -332zM729 693l266 -284l-4 -335l-484 449l11 330l495 416l-4 -332z" />
    <glyph glyph-name="logicalnot" unicode="&#xac;" horiz-adv-x="972" 
d="M549 613l-545 -15l-8 372l862 12l-6 -493l-296 -15z" />
    <glyph glyph-name="registered" unicode="&#xae;" 
d="M626 1241q-448 -11 -423 -572q24 -524 459 -542q416 36 418 578q-25 543 -454 536zM1306 750q21 -806 -643 -819q-664 -26 -690 741q21 781 677 781q627 9 656 -703zM694 902l-127 -5v-111l123 -13q64 7 69 60q5 70 -65 69zM639 617l-72 2l-6 -266l-174 -9l9 729l296 -2
q231 -4 235 -219q-4 -157 -117 -209q61 -104 121 -299l-183 -10q-56 208 -109 283z" />
    <glyph glyph-name="macron" unicode="&#xaf;" horiz-adv-x="972" 
d="M9 1132l-8 372l862 12l5 -360z" />
    <glyph glyph-name="degree" unicode="&#xb0;" 
d="M166 1350q-94 -2 -89 -120q5 -110 96 -114q88 8 88 122q-5 114 -95 112zM360 1249q6 -234 -187 -238q-192 -7 -200 215q6 227 196 227q183 3 191 -204z" />
    <glyph glyph-name="plusminus" unicode="&#xb1;" horiz-adv-x="1070" 
d="M301 480l-2 158l-290 -7l-8 372l294 4l-4 294l360 4l7 -294l303 4l5 -360l-298 -7l4 -164l290 4l5 -360l-957 -24l-8 372z" />
    <glyph glyph-name="uni00B2" unicode="&#xb2;" horiz-adv-x="496" 
d="M102 1204q92 24 130 45.5t30.5 54.5t-63.5 37q-78 6 -75 -67l-127 -8q-1 197 213 190q172 -6 179 -172q2 -118 -200 -167q-63 -12 -66 -63h264l-2 -121l-385 7q-9 108 7.5 171t94.5 93z" />
    <glyph glyph-name="uni00B3" unicode="&#xb3;" horiz-adv-x="1181" 
d="M153 1326q-51 -2 -49 -55l-112 2q-3 162 163 172l42 3q131 -16 134 -150q-2 -53 -21 -88q42 -38 44 -113q-4 -156 -167 -154l-39 2q-166 8 -163 171l112 1q-3 -56 57 -65l40 -2q43 5 46 41q3 43 -51 44l-44 5l-47 105l88 2q30 2 36 38q0 43 -45 42z" />
    <glyph glyph-name="acute" unicode="&#xb4;" horiz-adv-x="570" 
d="M464 1403l-207 -362l-227 4l71 367z" />
    <glyph glyph-name="mu" unicode="&#xb5;" horiz-adv-x="1283" 
d="M1190 -15l-284 -9l-7 84q-115 -63 -276 -64q-166 1 -287 50v-397l-343 -6l13 1763l332 -9l-4 -711q13 -320 267 -324q229 17 229 345l9 699h349z" />
    <glyph glyph-name="paragraph" unicode="&#xb6;" horiz-adv-x="1173" 
d="M729 -30l-242 20l33 527l-20 -1q-492 7 -504 476q9 441 481 456l607 23l18 -1445l-262 -75l1 1148l-93 3z" />
    <glyph glyph-name="periodcentered" unicode="&#xb7;" horiz-adv-x="508" 
d="M7.64941 465.787l-6.7998 316.19l318.741 13.5996l4.25 -305.991z" />
    <glyph glyph-name="periodcentered" unicode="&#x2219;" horiz-adv-x="508" 
d="M7.64941 465.787l-6.7998 316.19l318.741 13.5996l4.25 -305.991z" />
    <glyph glyph-name="cedilla" unicode="&#xb8;" horiz-adv-x="1024" 
d="M271 70l-64 -115q243 -35 188 -207.5t-299 -190.5l-55 154q153 -21 170.5 53.5t-166.5 92.5l13 200z" />
    <glyph glyph-name="uni00B9" unicode="&#xb9;" horiz-adv-x="305" 
d="M75 1441l131 6v-504l-130 -10l-1 355l-46 -40l-31 99z" />
    <glyph glyph-name="ordmasculine" unicode="&#xba;" 
d="M166 1350q-94 -2 -89 -120q5 -110 96 -114q88 8 88 122q-5 114 -95 112zM360 1249q6 -234 -187 -238q-192 -7 -200 215q6 227 196 227q183 3 191 -204z" />
    <glyph glyph-name="guillemotright" unicode="&#xbb;" horiz-adv-x="1111" 
d="M791 650l-266 284l4 335l484 -449l-11 -330l-495 -416l4 332zM273 655l-266 284l4 335l484 -449l-11 -330l-495 -416l4 332z" />
    <glyph glyph-name="onequarter" unicode="&#xbc;" horiz-adv-x="1708" 
 />
    <glyph glyph-name="onehalf" unicode="&#xbd;" horiz-adv-x="1964" 
 />
    <glyph glyph-name="threequarters" unicode="&#xbe;" horiz-adv-x="1708" 
 />
    <glyph glyph-name="questiondown" unicode="&#xbf;" horiz-adv-x="1179" 
d="M523 682l5 342l350 -17l1 -326zM628 265q-297 -190 -276.5 -283t179.5 -105q218 -17 210 190l358 22q4 -555 -599 -536q-484 17 -505 422q-1 219 188 331t325 266l358 -8q-26 -160 -238 -299z" />
    <glyph glyph-name="Agrave" unicode="&#xc0;" horiz-adv-x="1459" 
d="M436 175l-76 -210l-388 22l522 1414l409 39l454 -1436l-388 -34l-83 266zM792 537l-105 334l-133 -369zM726 1898l85 -377l-227 -4l-221 372z" />
    <glyph glyph-name="Aacute" unicode="&#xc1;" horiz-adv-x="1459" 
d="M436 175l-76 -210l-388 22l522 1414l409 39l454 -1436l-388 -34l-83 266zM792 537l-105 334l-133 -369zM954 1813l-207 -362l-227 4l71 367z" />
    <glyph glyph-name="Acircumflex" unicode="&#xc2;" horiz-adv-x="1459" 
d="M436 175l-76 -210l-388 22l522 1414l409 39l454 -1436l-388 -34l-83 266zM792 537l-105 334l-133 -369zM665 1638l-74 -171l-213 -2l182 357h210l181 -357l-213 2z" />
    <glyph glyph-name="Atilde" unicode="&#xc3;" horiz-adv-x="1459" 
d="M436 175l-76 -210l-388 22l522 1414l409 39l454 -1436l-388 -34l-83 266zM792 537l-105 334l-133 -369zM369 1728q166 105 295 5t289 18l7 -196q-178 -106 -295.5 -35.5t-295.5 -8.5v217z" />
    <glyph glyph-name="Adieresis" unicode="&#xc4;" horiz-adv-x="1459" 
d="M436 175l-76 -210l-388 22l522 1414l409 39l454 -1436l-388 -34l-83 266zM792 537l-105 334l-133 -369zM336 1508l-6 294l297 13l3 -285zM706 1517l-6 294l297 13l3 -285z" />
    <glyph glyph-name="Aring" unicode="&#xc5;" horiz-adv-x="1459" 
d="M436 175l-76 -210l-388 22l522 1414l409 39l454 -1436l-388 -34l-83 266zM792 537l-105 334l-133 -369zM813.5 1776q54.5 -54 54.5 -130q0 -77 -54.5 -131t-130.5 -54q-77 0 -131 54t-54 131q0 76 54 130t131 54q76 0 130.5 -54zM685 1732q-34 0 -57.5 -24t-23.5 -57
q0 -34 23.5 -57.5t57.5 -23.5q33 0 57 23.5t24 57.5q0 33 -24 57t-57 24z" />
    <glyph glyph-name="AE" unicode="&#xc6;" horiz-adv-x="2003" 
d="M792 537l-105 334l-133 -369zM969 -30l-83 266l-450 -61l-76 -210l-388 22l522 1414l1418 21l-4 -331l-884 -4l47 -178l831 20l-4 -332l-719 -30l67 -211l673 4l-13 -381z" />
    <glyph glyph-name="Ccedilla" unicode="&#xc7;" 
d="M502 -62q-502 69 -525 734q21 781 677 781q599 9 655 -660l-349 -21q-26 332 -319 327q-324 -8 -306 -414q17 -379 332 -392q301 26 310 293l341 39q13 -608 -651 -694h-3l-8 -15q243 -35 188 -207.5t-299 -190.5l-55 154q153 -21 170.5 53.5t-166.5 92.5z" />
    <glyph glyph-name="Egrave" unicode="&#xc8;" horiz-adv-x="1218" 
d="M402 894l691 20l-35 -332l-676 -31l-13 -210l763 4l-35 -405l-1099 34l57 1436l1091 21l-31 -336l-700 -23zM636 1822l85 -377l-227 -4l-221 372z" />
    <glyph glyph-name="Eacute" unicode="&#xc9;" horiz-adv-x="1218" 
d="M402 894l691 20l-35 -332l-676 -31l-13 -210l763 4l-35 -405l-1099 34l57 1436l1091 21l-31 -336l-700 -23zM861 1813l-207 -362l-227 4l71 367z" />
    <glyph glyph-name="Ecircumflex" unicode="&#xca;" horiz-adv-x="1218" 
d="M402 894l691 20l-35 -332l-676 -31l-13 -210l763 4l-35 -405l-1099 34l57 1436l1091 21l-31 -336l-700 -23zM572 1638l-74 -171l-213 -2l182 357h210l181 -357l-213 2z" />
    <glyph glyph-name="Edieresis" unicode="&#xcb;" horiz-adv-x="1218" 
d="M402 894l691 20l-35 -332l-676 -31l-13 -210l763 4l-35 -405l-1099 34l57 1436l1091 21l-31 -336l-700 -23zM243 1508l-6 294l297 13l3 -285zM613 1517l-6 294l297 13l3 -285z" />
    <glyph glyph-name="Igrave" unicode="&#xcc;" horiz-adv-x="597" 
d="M9 -30l-4 1429l375 16l1 -1417zM257 1822l85 -377l-227 -4l-221 372z" />
    <glyph glyph-name="Iacute" unicode="&#xcd;" horiz-adv-x="485" 
d="M9 -30l-4 1429l375 16l1 -1417zM482 1813l-207 -362l-227 4l71 367z" />
    <glyph glyph-name="Icircumflex" unicode="&#xce;" horiz-adv-x="485" 
d="M9 -30l-4 1429l375 16l1 -1417zM193 1638l-74 -171l-213 -2l182 357h210l181 -357l-213 2z" />
    <glyph glyph-name="Idieresis" unicode="&#xcf;" horiz-adv-x="485" 
d="M9 -30l-4 1429l375 16l1 -1417zM-136 1508l-6 294l297 13l3 -285zM234 1517l-6 294l297 13l3 -285z" />
    <glyph glyph-name="Eth" unicode="&#xd0;" horiz-adv-x="1556" 
d="M564 527l-1 -207l234 13q324 8 301 366q-17 379 -332 398l-199 -9l-1 -197l257 -3l-26 -363zM198 902l-6 535l574 16q664 26 690 -741q-16 -733 -671 -718l-576 12l-6 532l-226 1l20 363h201z" />
    <glyph glyph-name="Ntilde" unicode="&#xd1;" horiz-adv-x="1498" 
d="M357 949l20 -962l-358 -9l-13 1436l453 13l571 -1005l7 1035l366 13l-42 -1500h-462zM409 1728q166 105 295 5t289 18l7 -196q-178 -106 -295.5 -35.5t-295.5 -8.5v217z" />
    <glyph glyph-name="Ograve" unicode="&#xd2;" 
d="M637 1099q-324 -8 -306 -414q17 -379 332 -392q301 26 302 418q-18 393 -328 388zM1306 750q21 -806 -643 -819q-664 -26 -690 741q21 781 677 781q627 9 656 -703zM704 1822l85 -377l-227 -4l-221 372z" />
    <glyph glyph-name="Oacute" unicode="&#xd3;" 
d="M637 1099q-324 -8 -306 -414q17 -379 332 -392q301 26 302 418q-18 393 -328 388zM1306 750q21 -806 -643 -819q-664 -26 -690 741q21 781 677 781q627 9 656 -703zM929 1813l-207 -362l-227 4l71 367z" />
    <glyph glyph-name="Ocircumflex" unicode="&#xd4;" 
d="M637 1099q-324 -8 -306 -414q17 -379 332 -392q301 26 302 418q-18 393 -328 388zM1306 750q21 -806 -643 -819q-664 -26 -690 741q21 781 677 781q627 9 656 -703zM640 1638l-74 -171l-213 -2l182 357h210l181 -357l-213 2z" />
    <glyph glyph-name="Otilde" unicode="&#xd5;" 
d="M637 1099q-324 -8 -306 -414q17 -379 332 -392q301 26 302 418q-18 393 -328 388zM1306 750q21 -806 -643 -819q-664 -26 -690 741q21 781 677 781q627 9 656 -703zM344 1728q166 105 295 5t289 18l7 -196q-178 -106 -295.5 -35.5t-295.5 -8.5v217z" />
    <glyph glyph-name="Odieresis" unicode="&#xd6;" 
d="M637 1099q-324 -8 -306 -414q17 -379 332 -392q301 26 302 418q-18 393 -328 388zM1306 750q21 -806 -643 -819q-664 -26 -690 741q21 781 677 781q627 9 656 -703zM311 1508l-6 294l297 13l3 -285zM681 1517l-6 294l297 13l3 -285z" />
    <glyph glyph-name="multiply" unicode="&#xd7;" horiz-adv-x="1070" 
d="M223 688l-217 193l249 277l217 -199l199 217l265 -243l-196 -220l223 -204l-243 -266l-223 199l-199 -223l-276 249z" />
    <glyph glyph-name="Oslash" unicode="&#xd8;" 
d="M1189 1201q105 -168 117 -451q21 -806 -643 -819q-155 -6 -275 31l-79 -123l-334 165l119 184q-111 180 -121 484q21 781 677 781q134 2 241 -29l76 117l341 -155zM344 575l337 523q-21 1 -44 1q-324 -8 -306 -414q3 -59 13 -110zM951 833l-345 -534q27 -5 57 -6
q301 26 302 418q-3 66 -14 122z" />
    <glyph glyph-name="Ugrave" unicode="&#xd9;" horiz-adv-x="1283" 
d="M338 1397l-4 -711q13 -320 267 -324q229 17 229 345l9 699h349l-5 -703q-17 -703 -560 -707q-625 4 -625 685l8 725zM657 1822l85 -377l-227 -4l-221 372z" />
    <glyph glyph-name="Uacute" unicode="&#xda;" horiz-adv-x="1283" 
d="M338 1397l-4 -711q13 -320 267 -324q229 17 229 345l9 699h349l-5 -703q-17 -703 -560 -707q-625 4 -625 685l8 725zM882 1813l-207 -362l-227 4l71 367z" />
    <glyph glyph-name="Ucircumflex" unicode="&#xdb;" horiz-adv-x="1283" 
d="M338 1397l-4 -711q13 -320 267 -324q229 17 229 345l9 699h349l-5 -703q-17 -703 -560 -707q-625 4 -625 685l8 725zM593 1638l-74 -171l-213 -2l182 357h210l181 -357l-213 2z" />
    <glyph glyph-name="Udieresis" unicode="&#xdc;" horiz-adv-x="1283" 
d="M338 1397l-4 -711q13 -320 267 -324q229 17 229 345l9 699h349l-5 -703q-17 -703 -560 -707q-625 4 -625 685l8 725zM264 1508l-6 294l297 13l3 -285zM634 1517l-6 294l297 13l3 -285z" />
    <glyph glyph-name="Yacute" unicode="&#xdd;" horiz-adv-x="1233" 
d="M337 1429l234 -487l248 470l439 43l-516 -902l-13 -568l-359 -25l17 580l-414 880zM905 1813l-207 -362l-227 4l71 367z" />
    <glyph glyph-name="Thorn" unicode="&#xde;" horiz-adv-x="1199" 
d="M380 1212l246 -9q472 -15 481 -456q-12 -469 -504 -476h-222l-10 -443l-370 22l4 1695l375 16v-349zM381 840v-229l242 -13q129 2 139 110q12 144 -133 158z" />
    <glyph glyph-name="germandbls" unicode="&#xdf;" horiz-adv-x="1181" 
d="M605 252q137 16 147 130q9 138 -216 136h-3l-10 322h5q151 10 168 124q0 138 -141 136l-110 5q-111 4 -107 -104l-15 -1029l-323 24l4 1041q10 379 334 408l283 3q395 -49 403 -452q-4 -158 -63 -264q127 -112 132 -339q-12 -469 -500 -462l-188 22l25 320z" />
    <glyph glyph-name="agrave" unicode="&#xe0;" horiz-adv-x="1459" 
d="M436 175l-76 -210l-388 22l522 1414l409 39l454 -1436l-388 -34l-83 266zM792 537l-105 334l-133 -369zM726 1898l85 -377l-227 -4l-221 372z" />
    <glyph glyph-name="aacute" unicode="&#xe1;" horiz-adv-x="1459" 
d="M436 175l-76 -210l-388 22l522 1414l409 39l454 -1436l-388 -34l-83 266zM792 537l-105 334l-133 -369zM954 1813l-207 -362l-227 4l71 367z" />
    <glyph glyph-name="acircumflex" unicode="&#xe2;" horiz-adv-x="1459" 
d="M436 175l-76 -210l-388 22l522 1414l409 39l454 -1436l-388 -34l-83 266zM792 537l-105 334l-133 -369zM665 1638l-74 -171l-213 -2l182 357h209l182 -357l-213 2z" />
    <glyph glyph-name="atilde" unicode="&#xe3;" horiz-adv-x="1459" 
d="M436 175l-76 -210l-388 22l522 1414l409 39l454 -1436l-388 -34l-83 266zM792 537l-105 334l-133 -369zM369 1728q166 105 295 5t289 18l7 -196q-178 -106 -295.5 -35.5t-295.5 -8.5v217z" />
    <glyph glyph-name="adieresis" unicode="&#xe4;" horiz-adv-x="1459" 
d="M436 175l-76 -210l-388 22l522 1414l409 39l454 -1436l-388 -34l-83 266zM792 537l-105 334l-133 -369zM336 1508l-7 294l297 13l4 -285zM706 1517l-7 294l297 13l4 -285z" />
    <glyph glyph-name="aring" unicode="&#xe5;" horiz-adv-x="1459" 
d="M436 175l-76 -210l-388 22l522 1414l409 39l454 -1436l-388 -34l-83 266zM792 537l-105 334l-133 -369zM814 1776q54 -54 54 -130q0 -77 -54 -131t-131 -54t-131 54t-54 131q0 76 54 130t131 54t131 -54zM685 1732q-34 0 -57.5 -24t-23.5 -57q0 -34 23.5 -57.5
t57.5 -23.5q33 0 57 23.5t24 57.5q0 33 -24 57t-57 24z" />
    <glyph glyph-name="ae" unicode="&#xe6;" horiz-adv-x="2003" 
d="M792 537l-105 334l-133 -369zM969 -30l-83 266l-450 -61l-76 -210l-388 22l522 1414l1418 21l-4 -331l-884 -4l47 -178l831 20l-4 -332l-719 -30l67 -211l673 4l-13 -381z" />
    <glyph glyph-name="ccedilla" unicode="&#xe7;" 
d="M502 -62q-502 69 -525 734q21 781 677 781q599 9 655 -660l-349 -21q-26 332 -319 327q-324 -8 -306 -414q17 -379 332 -392q301 26 310 293l341 39q13 -608 -651 -694h-3l-8 -15q243 -35 188 -207.5t-299 -190.5l-55 154q153 -21 170.5 53.5t-166.5 92.5z" />
    <glyph glyph-name="egrave" unicode="&#xe8;" horiz-adv-x="1218" 
d="M402 894l691 20l-35 -332l-676 -31l-13 -210l763 4l-35 -405l-1099 34l57 1436l1091 21l-31 -336l-700 -23zM636 1822l85 -377l-227 -4l-221 372z" />
    <glyph glyph-name="eacute" unicode="&#xe9;" horiz-adv-x="1218" 
d="M402 894l691 20l-35 -332l-676 -31l-13 -210l763 4l-35 -405l-1099 34l57 1436l1091 21l-31 -336l-700 -23zM861 1813l-207 -362l-227 4l71 367z" />
    <glyph glyph-name="ecircumflex" unicode="&#xea;" horiz-adv-x="1218" 
d="M402 894l691 20l-35 -332l-676 -31l-13 -210l763 4l-35 -405l-1099 34l57 1436l1091 21l-31 -336l-700 -23zM572 1638l-74 -171l-213 -2l182 357h210l182 -357l-213 2z" />
    <glyph glyph-name="edieresis" unicode="&#xeb;" horiz-adv-x="1218" 
d="M402 894l691 20l-35 -332l-676 -31l-13 -210l763 4l-35 -405l-1099 34l57 1436l1091 21l-31 -336l-700 -23zM243 1508l-6 294l297 13l3 -285zM613 1517l-6 294l297 13l3 -285z" />
    <glyph glyph-name="igrave" unicode="&#xec;" horiz-adv-x="597" 
d="M120 -30l-4 1429l375 16l1 -1417zM368 1822l85 -377l-227 -4l-221 372z" />
    <glyph glyph-name="iacute" unicode="&#xed;" horiz-adv-x="485" 
d="M9 -30l-4 1429l375 16l1 -1417zM482 1813l-207 -362l-227 4l71 367z" />
    <glyph glyph-name="icircumflex" unicode="&#xee;" horiz-adv-x="485" 
d="M108 -30l-4 1429l375 16l1 -1417zM292 1638l-74 -171l-213 -2l182 357h210l181 -357l-213 2z" />
    <glyph glyph-name="idieresis" unicode="&#xef;" horiz-adv-x="485" 
d="M157 -30l-4 1429l375 16l1 -1417zM12 1508l-7 294l298 13l3 -285zM382 1517l-7 294l298 13l3 -285z" />
    <glyph glyph-name="eth" unicode="&#xf0;" horiz-adv-x="1556" 
d="M564 527l-1 -207l234 13q324 8 301 366q-17 379 -332 398l-199 -9l-1 -197l257 -3l-26 -363zM198 902l-6 535l574 16q664 26 690 -741q-16 -733 -671 -718l-576 12l-6 532l-226 1l20 363h201z" />
    <glyph glyph-name="ntilde" unicode="&#xf1;" horiz-adv-x="1498" 
d="M357 949l20 -962l-358 -9l-13 1436l453 13l571 -1005l7 1035l366 13l-42 -1500h-462zM409 1728q166 105 295 5t289 18l7 -196q-178 -106 -295.5 -35.5t-295.5 -8.5v217z" />
    <glyph glyph-name="ograve" unicode="&#xf2;" 
d="M637 1099q-324 -8 -306 -414q17 -379 332 -392q301 26 302 418q-18 393 -328 388zM1306 750q21 -806 -643 -819q-664 -26 -690 741q21 781 677 781q627 9 656 -703zM704 1822l85 -377l-227 -4l-221 372z" />
    <glyph glyph-name="oacute" unicode="&#xf3;" 
d="M637 1099q-324 -8 -306 -414q17 -379 332 -392q301 26 302 418q-18 393 -328 388zM1306 750q21 -806 -643 -819q-664 -26 -690 741q21 781 677 781q627 9 656 -703zM929 1813l-207 -362l-227 4l71 367z" />
    <glyph glyph-name="ocircumflex" unicode="&#xf4;" 
d="M637 1099q-324 -8 -306 -414q17 -379 332 -392q301 26 302 418q-18 393 -328 388zM1306 750q21 -806 -643 -819q-664 -26 -690 741q21 781 677 781q627 9 656 -703zM640 1638l-74 -171l-213 -2l182 357h210l181 -357l-213 2z" />
    <glyph glyph-name="otilde" unicode="&#xf5;" 
d="M637 1099q-324 -8 -306 -414q17 -379 332 -392q301 26 302 418q-18 393 -328 388zM1306 750q21 -806 -643 -819q-664 -26 -690 741q21 781 677 781q627 9 656 -703zM344 1728q166 105 295 5t289 18l7 -196q-178 -106 -295.5 -35.5t-295.5 -8.5v217z" />
    <glyph glyph-name="odieresis" unicode="&#xf6;" 
d="M637 1099q-324 -8 -306 -414q17 -379 332 -392q301 26 302 418q-18 393 -328 388zM1306 750q21 -806 -643 -819q-664 -26 -690 741q21 781 677 781q627 9 656 -703zM311 1508l-6 294l297 13l3 -285zM681 1517l-6 294l297 13l3 -285z" />
    <glyph glyph-name="divide" unicode="&#xf7;" horiz-adv-x="1197" 
d="M11 899l1105 -34l-26 -363l-1099 34zM375 62l-8 372l375 17l4 -360zM740 1310l-4 -360l-375 17l8 372z" />
    <glyph glyph-name="oslash" unicode="&#xf8;" 
d="M1189 1201q105 -168 117 -451q21 -806 -643 -819q-155 -6 -275 31l-79 -123l-334 165l119 184q-111 180 -121 484q21 781 677 781q134 2 241 -29l76 117l341 -155zM344 575l337 523q-21 1 -44 1q-324 -8 -306 -414q3 -59 13 -110zM951 833l-345 -534q27 -5 57 -6
q301 26 302 418q-3 66 -14 122z" />
    <glyph glyph-name="ugrave" unicode="&#xf9;" horiz-adv-x="1283" 
d="M338 1397l-4 -711q13 -320 267 -324q229 17 229 345l9 699h349l-5 -703q-17 -703 -560 -707q-625 4 -625 685l8 725zM657 1822l85 -377l-227 -4l-221 372z" />
    <glyph glyph-name="uacute" unicode="&#xfa;" horiz-adv-x="1283" 
d="M338 1397l-4 -711q13 -320 267 -324q229 17 229 345l9 699h349l-5 -703q-17 -703 -560 -707q-625 4 -625 685l8 725zM882 1813l-207 -362l-227 4l71 367z" />
    <glyph glyph-name="ucircumflex" unicode="&#xfb;" horiz-adv-x="1283" 
d="M338 1397l-4 -711q13 -320 267 -324q229 17 229 345l9 699h349l-5 -703q-17 -703 -560 -707q-625 4 -625 685l8 725zM593 1638l-74 -171l-213 -2l182 357h210l182 -357l-213 2z" />
    <glyph glyph-name="udieresis" unicode="&#xfc;" horiz-adv-x="1283" 
d="M338 1397l-4 -711q13 -320 267 -324q229 17 229 345l9 699h349l-5 -703q-17 -703 -560 -707q-625 4 -625 685l8 725zM264 1508l-6 294l297 13l3 -285zM634 1517l-6 294l297 13l3 -285z" />
    <glyph glyph-name="yacute" unicode="&#xfd;" horiz-adv-x="1233" 
d="M337 1429l234 -487l248 470l439 43l-516 -902l-13 -568l-359 -25l17 580l-414 880zM905 1813l-207 -362l-227 4l71 367z" />
    <glyph glyph-name="thorn" unicode="&#xfe;" horiz-adv-x="1199" 
d="M380 1212l246 -9q472 -15 481 -456q-12 -469 -504 -476h-222l-10 -443l-370 22l4 1695l375 16v-349zM381 840v-229l242 -13q129 2 139 110q12 144 -133 158z" />
    <glyph glyph-name="ydieresis" unicode="&#xff;" horiz-adv-x="1233" 
d="M337 1429l234 -487l248 470l439 43l-516 -902l-13 -568l-359 -25l17 580l-414 880zM292 1468l-6 294l297 13l3 -285zM662 1477l-6 294l297 13l3 -285z" />
    <glyph glyph-name="dotlessi" unicode="&#x131;" horiz-adv-x="485" 
d="M9 -30l-4 1429l375 16l1 -1417z" />
    <glyph glyph-name="circumflex" unicode="&#x2c6;" horiz-adv-x="822" 
d="M298 1228l-74 -171l-213 -2l182 357h210l181 -357l-213 2z" />
    <glyph glyph-name="caron" unicode="&#x2c7;" horiz-adv-x="822" 
d="M314 1229l77 180l225 3l-191 -377h-222l-192 377l225 -3z" />
    <glyph glyph-name="uni02C9" unicode="&#x2c9;" horiz-adv-x="706" 
d="M6 1132l-5 256l594 9l3 -248z" />
    <glyph glyph-name="breve" unicode="&#x2d8;" horiz-adv-x="1024" 
d="M188 1385q0 -60 41.5 -101.5t100.5 -41.5q58 0 101 42q41 40 42 99l179 -6v-1q0 -135 -96 -230t-229 -95q-135 0 -230 95t-95 230l1 21l185 -6v-6z" />
    <glyph glyph-name="dotaccent" unicode="&#x2d9;" horiz-adv-x="398" 
d="M7 1112l-6 284l286 12l4 -275z" />
    <glyph glyph-name="ring" unicode="&#x2da;" horiz-adv-x="1024" 
d="M317.5 1366q54.5 -54 54.5 -130q0 -77 -54.5 -131t-130.5 -54q-77 0 -131 54t-54 131q0 76 54 130t131 54q76 0 130.5 -54zM189 1322q-34 0 -57.5 -24t-23.5 -57q0 -34 23.5 -57.5t57.5 -23.5q33 0 57 23.5t24 57.5q0 33 -24 57t-57 24z" />
    <glyph glyph-name="ogonek" unicode="&#x2db;" horiz-adv-x="467" 
d="M354 57l13 -200q-184 -18 -166.5 -92.5t170.5 -53.5l-55 -154q-244 18 -299 190.5t188 207.5l-64 115z" />
    <glyph glyph-name="tilde" unicode="&#x2dc;" horiz-adv-x="972" 
d="M2 1318q166 105 295 5t289 18l7 -196q-178 -106 -295.5 -35.5t-295.5 -8.5v217z" />
    <glyph glyph-name="hungarumlaut" unicode="&#x2dd;" horiz-adv-x="838" 
d="M379 1403l-187 -362l-206 4l64 367zM756 1398l-187 -362l-206 4l64 367z" />
    <glyph glyph-name="endash" unicode="&#x2013;" horiz-adv-x="1307" 
d="M9 504l-8 372l1189 3l5 -360z" />
    <glyph glyph-name="emdash" unicode="&#x2014;" horiz-adv-x="1605" 
d="M9 504l-8 372l1492 3l5 -360z" />
    <glyph glyph-name="quoteleft" unicode="&#x2018;" horiz-adv-x="485" 
d="M223 1153l160 12l8 -372l-375 -16l-5 360l10 1q-5 245 330 285l35 -141q-155 -16 -163 -129z" />
    <glyph glyph-name="quoteright" unicode="&#x2019;" horiz-adv-x="485" 
d="M179 1047l-160 -12l-8 372l375 16l5 -360l-10 -1q5 -245 -330 -285l-35 141q155 16 163 129z" />
    <glyph glyph-name="quotesinglbase" unicode="&#x201a;" horiz-adv-x="485" 
d="M169 -18l-160 -12l-8 372l375 16l5 -360l-10 -1q5 -245 -330 -285l-35 141q155 16 163 129z" />
    <glyph glyph-name="quotedblleft" unicode="&#x201c;" horiz-adv-x="916" 
d="M662 1143l160 12l8 -372l-375 -16l-5 360l10 1q-5 245 330 285l35 -141q-155 -16 -163 -129zM218 1138l160 12l8 -372l-375 -16l-5 360l10 1q-5 245 330 285l35 -141q-155 -16 -163 -129z" />
    <glyph glyph-name="quotedblright" unicode="&#x201d;" horiz-adv-x="916" 
d="M174 1032l-160 -12l-8 372l375 16l5 -360l-10 -1q5 -245 -330 -285l-35 141q155 16 163 129zM618 1037l-160 -12l-8 372l375 16l5 -360l-10 -1q5 -245 -330 -285l-35 141q155 16 163 129z" />
    <glyph glyph-name="quotedblbase" unicode="&#x201e;" horiz-adv-x="916" 
d="M169 -18l-160 -12l-8 372l375 16l5 -360l-10 -1q5 -245 -330 -285l-35 141q155 16 163 129zM613 -13l-160 -12l-8 372l375 16l5 -360l-10 -1q5 -245 -330 -285l-35 141q155 16 163 129z" />
    <glyph glyph-name="dagger" unicode="&#x2020;" horiz-adv-x="1061" 
d="M283 1142l-1 262l375 16v-287l310 -8l-10 -330l-300 7l1 -799l-372 -28l-2 837l-305 7l10 330z" />
    <glyph glyph-name="daggerdbl" unicode="&#x2021;" horiz-adv-x="1061" 
d="M283 1142l-1 262l375 16v-287l310 -8l-10 -330l-300 7l1 -203l304 -7l-10 -330l-294 7v-266l-372 -28l-1 303l-311 8l10 330l300 -7v203l-305 7l10 330z" />
    <glyph glyph-name="bullet" unicode="&#x2022;" horiz-adv-x="476" 
d="M307.5 863q54.5 -54 54.5 -130q0 -77 -54.5 -131t-130.5 -54q-77 0 -131 54t-54 131q0 76 54 130t131 54q76 0 130.5 -54z" />
    <glyph glyph-name="ellipsis" unicode="&#x2026;" horiz-adv-x="2048" 
d="M9 -30l-8 372l375 16l5 -360zM692 -30l-8 372l375 16l5 -360zM1375 -30l-8 372l375 16l5 -360z" />
    <glyph glyph-name="guilsinglleft" unicode="&#x2039;" horiz-adv-x="603" 
d="M211 698l266 -284l-4 -335l-484 449l11 330l495 416l-4 -332z" />
    <glyph glyph-name="guilsinglright" unicode="&#x203a;" horiz-adv-x="603" 
d="M-7 942l-4 332l495 -416l11 -330l-484 -449l-4 335l266 284z" />
    <glyph glyph-name="fraction" unicode="&#x2044;" horiz-adv-x="342" 
 />
    <glyph glyph-name="fraction" unicode="&#x2215;" horiz-adv-x="342" 
 />
    <glyph glyph-name="franc" unicode="&#x20a3;" 
d="M227 453l-42 1020l1099 34l35 -405l-763 4l13 -240l672 55l35 -332l-687 -66l4 -81l284 -9l-20 -279l-248 8l11 -202l-375 69l-6 144l-226 7l15 279z" />
    <glyph glyph-name="lira" unicode="&#x20a4;" horiz-adv-x="1288" 
d="M544 298h633l15 -318l-1182 6l-5 342l192 -5q-18 86 -64 174l-128 1v313h68q-7 79 -6 159q21 469 505 486q603 19 599 -536l-358 22q8 207 -210 190q-159 -12 -179.5 -105t-17.5 -140.5t9 -75.5h581l15 -318h-507q30 -97 40 -195z" />
    <glyph glyph-name="peseta" unicode="&#x20a7;" horiz-adv-x="2424" 
d="M561 1111l-233 -27v-227l228 -14q116 2 125 110q10 144 -120 158zM963 800q-85 -279 -425 -284h-209v-580l-333 90l16 1445l547 -23q378 -13 425 -366l592 12q90 136 313 144q446 14 443 -397l-265 16q6 154 -156 141q-118 -9 -133 -78t65 -114t270 -95q193 -75 211 -252
q-33 -341 -369 -354q-447 -14 -444 397l246 -16q19 -148 176 -151q107 12 128 79q28 71 -128 116q-372 89 -413 290l-244 -7l30 -865l-273 -30l-27 885z" />
    <glyph glyph-name="Euro" unicode="&#x20ac;" horiz-adv-x="1468" 
d="M129 949q110 528 650 528q471 7 606 -404l-328 -136q-69 190 -291 186q-198 -5 -268 -158l427 18l-14 -250l-451 -22v-2q2 -38 6 -72l444 19l-14 -250l-314 -15q79 -69 210 -74q228 20 289 178l316 -145q-127 -333 -605 -395q-503 -20 -640 415l-140 -7l-5 254l99 4
q-3 36 -4 73l-75 -4l-5 254z" />
    <glyph glyph-name="uni2116" unicode="&#x2116;" horiz-adv-x="2897" 
d="M357 949l20 -962l-358 -9l-13 1436l453 13l571 -1005l7 1035l366 13l-42 -1500h-462zM1664 1350q-94 -2 -89 -120q5 -110 96 -114q88 8 88 122q-5 114 -95 112zM1858 1249q6 -234 -187 -238q-192 -7 -200 215q6 227 196 227q183 3 191 -204z" />
    <glyph glyph-name="trademark" unicode="&#x2122;" horiz-adv-x="1261" 
d="M0.900391 912.456l532.814 10l-7.65039 -139.608l-194.405 -5.2002l17.5498 -443.228l-157.504 -15.6006l-15.75 453.628l-180.905 -12.001zM554.415 640.839l99.0029 275.617l216.905 1.59961l6.75098 -579.235l-165.155 -1.59961v369.223l-75.1514 -256.416h-157.955
l-74.7012 249.615l3.59961 -367.223l-166.954 -7.2002l-6.75098 594.837l201.156 -0.400391z" />
    <glyph glyph-name="partialdiff" unicode="&#x2202;" horiz-adv-x="1014" 
 />
    <glyph glyph-name="Delta" unicode="&#x2206;" horiz-adv-x="1081" 
 />
    <glyph glyph-name="product" unicode="&#x220f;" horiz-adv-x="1515" 
 />
    <glyph glyph-name="summation" unicode="&#x2211;" horiz-adv-x="1206" 
 />
    <glyph glyph-name="minus" unicode="&#x2212;" horiz-adv-x="1070" 
d="M9 504l-8 372l960 12l5 -360z" />
    <glyph glyph-name="radical" unicode="&#x221a;" horiz-adv-x="1014" 
 />
    <glyph glyph-name="infinity" unicode="&#x221e;" horiz-adv-x="1014" 
 />
    <glyph glyph-name="integral" unicode="&#x222b;" horiz-adv-x="665" 
 />
    <glyph glyph-name="approxequal" unicode="&#x2248;" horiz-adv-x="972" 
d="M7 1064q202 129 384.5 18.5t471.5 -13.5l9 -356q-312 -82 -480 -7.5t-385 -21.5v380zM7 601q202 129 384.5 18.5t471.5 -13.5l9 -356q-312 -82 -480 -7.5t-385 -21.5v380z" />
    <glyph glyph-name="lessequal" unicode="&#x2264;" horiz-adv-x="1249" 
d="M426 933l710 -269l-4 -335l-1143 449l11 330l1154 416l-4 -332zM-5 5l12 321l1132 -29l-15 -311z" />
    <glyph glyph-name="greaterequal" unicode="&#x2265;" horiz-adv-x="1249" 
d="M-7 1192l-4 332l1154 -416l11 -330l-1143 -449l-4 335l710 269zM19 -14l-15 311l1132 29l12 -321z" />
    <glyph glyph-name="uniF001" unicode="&#xf001;" horiz-adv-x="1073" 
 />
    <glyph glyph-name="uniF001" unicode="&#xfb01;" horiz-adv-x="1073" 
 />
    <glyph glyph-name="uniF002" unicode="&#xf002;" horiz-adv-x="1081" 
 />
    <glyph glyph-name="uniF002" unicode="&#xfb02;" horiz-adv-x="1081" 
 />
    <glyph glyph-name="Amacron" unicode="&#x100;" horiz-adv-x="1459" 
d="M436 175l-76 -210l-388 22l522 1414l409 39l454 -1436l-388 -34l-83 266zM792 537l-105 334l-133 -369zM371 1542l-5 256l594 9l3 -248z" />
    <glyph glyph-name="amacron" unicode="&#x101;" horiz-adv-x="1459" 
d="M436 175l-76 -210l-388 22l522 1414l409 39l454 -1436l-388 -34l-83 266zM792 537l-105 334l-133 -369zM371 1542l-5 256l594 9l3 -248z" />
    <glyph glyph-name="Abreve" unicode="&#x102;" horiz-adv-x="1459" 
d="M436 175l-76 -210l-388 22l522 1414l409 39l454 -1436l-388 -34l-83 266zM792 537l-105 334l-133 -369zM526 1795q0 -60 41.5 -101.5t100.5 -41.5q58 0 101 42q41 40 42 99l179 -6v-1q0 -135 -96 -230t-229 -95q-135 0 -230 95t-95 230l1 21l185 -6v-6z" />
    <glyph glyph-name="abreve" unicode="&#x103;" horiz-adv-x="1459" 
d="M436 175l-76 -210l-388 22l522 1414l409 39l454 -1436l-388 -34l-83 266zM792 537l-105 334l-133 -369zM526 1795q0 -60 41 -101.5t101 -41.5q58 0 100 42q42 40 42 99l179 -6v-1q0 -135 -95.5 -230t-228.5 -95q-136 0 -230.5 95t-94.5 230v21l186 -6v-6z" />
    <glyph glyph-name="Aogonek" unicode="&#x104;" horiz-adv-x="1459" 
d="M436 175l-76 -210l-388 22l522 1414l409 39l454 -1436l-388 -34l-83 266zM792 537l-105 334l-133 -369zM1340 57l13 -200q-184 -18 -166.5 -92.5t170.5 -53.5l-55 -154q-244 18 -299 190.5t188 207.5l-64 115z" />
    <glyph glyph-name="aogonek" unicode="&#x105;" horiz-adv-x="1459" 
d="M436 175l-76 -210l-388 22l522 1414l409 39l454 -1436l-388 -34l-83 266zM792 537l-105 334l-133 -369zM1340 57l13 -200q-184 -18 -166.5 -92.5t170.5 -53.5l-55 -154q-244 18 -299 190.5t188 207.5l-64 115z" />
    <glyph glyph-name="Cacute" unicode="&#x106;" 
d="M654 1453q599 9 655 -660l-349 -21q-26 332 -319 327q-324 -8 -306 -414q17 -379 332 -392q301 26 310 293l341 39q13 -608 -651 -694q-664 -26 -690 741q21 781 677 781zM937 1813l-207 -362l-227 4l71 367z" />
    <glyph glyph-name="cacute" unicode="&#x107;" 
d="M654 1453q599 9 655 -660l-349 -21q-26 332 -319 327q-324 -8 -306 -414q17 -379 332 -392q301 26 310 293l341 39q13 -608 -651 -694q-664 -26 -690 741q21 781 677 781zM937 1813l-207 -362l-227 4l71 367z" />
    <glyph glyph-name="Ccircumflex" unicode="&#x108;" 
d="M654 1453q599 9 655 -660l-349 -21q-26 332 -319 327q-324 -8 -306 -414q17 -379 332 -392q301 26 310 293l341 39q13 -608 -651 -694q-664 -26 -690 741q21 781 677 781zM648 1638l-74 -171l-213 -2l182 357h210l181 -357l-213 2z" />
    <glyph glyph-name="ccircumflex" unicode="&#x109;" 
d="M654 1453q599 9 655 -660l-349 -21q-26 332 -319 327q-324 -8 -306 -414q17 -379 332 -392q301 26 310 293l341 39q13 -608 -651 -694q-664 -26 -690 741q21 781 677 781zM648 1638l-74 -171l-213 -2l182 357h210l181 -357l-213 2z" />
    <glyph glyph-name="Cdotaccent" unicode="&#x10a;" 
d="M654 1453q599 9 655 -660l-349 -21q-26 332 -319 327q-324 -8 -306 -414q17 -379 332 -392q301 26 310 293l341 39q13 -608 -651 -694q-664 -26 -690 741q21 781 677 781zM509 1522l-6 284l286 12l4 -275z" />
    <glyph glyph-name="cdotaccent" unicode="&#x10b;" 
d="M654 1453q599 9 655 -660l-349 -21q-26 332 -319 327q-324 -8 -306 -414q17 -379 332 -392q301 26 310 293l341 39q13 -608 -651 -694q-664 -26 -690 741q21 781 677 781zM509 1522l-6 284l286 12l4 -275z" />
    <glyph glyph-name="Ccaron" unicode="&#x10c;" 
d="M654 1453q599 9 655 -660l-349 -21q-26 332 -319 327q-324 -8 -306 -414q17 -379 332 -392q301 26 310 293l341 39q13 -608 -651 -694q-664 -26 -690 741q21 781 677 781zM648 1639l77 180l225 3l-191 -377h-222l-192 377l225 -3z" />
    <glyph glyph-name="ccaron" unicode="&#x10d;" 
d="M654 1453q599 9 655 -660l-349 -21q-26 332 -319 327q-324 -8 -306 -414q17 -379 332 -392q301 26 310 293l341 39q13 -608 -651 -694q-664 -26 -690 741q21 781 677 781zM648 1639l77 180l225 3l-192 -377h-221l-192 377l225 -3z" />
    <glyph glyph-name="Dcaron" unicode="&#x10e;" horiz-adv-x="1365" 
d="M580 1452q664 26 690 -741q-16 -733 -671 -718l-576 12l-17 1431zM611 332q324 8 301 366q-17 379 -332 398l-199 -9l-4 -768zM638 1639l77 180l225 3l-191 -377h-222l-192 377l225 -3z" />
    <glyph glyph-name="dcaron" unicode="&#x10f;" horiz-adv-x="1365" 
d="M580 1452q664 26 690 -741q-16 -733 -671 -718l-576 12l-17 1431zM611 332q324 8 301 366q-17 379 -332 398l-199 -9l-4 -768zM638 1639l78 180l225 3l-192 -377h-222l-192 377l225 -3z" />
    <glyph glyph-name="Dcroat" unicode="&#x110;" horiz-adv-x="1556" 
d="M564 527l-1 -207l234 13q324 8 301 366q-17 379 -332 398l-199 -9l-1 -197l257 -3l-26 -363zM198 902l-6 535l574 16q664 26 690 -741q-16 -733 -671 -718l-576 12l-6 532l-226 1l20 363h201z" />
    <glyph glyph-name="dcroat" unicode="&#x111;" horiz-adv-x="1556" 
d="M564 527l-1 -207l234 13q324 8 301 366q-17 379 -332 398l-199 -9l-1 -197l257 -3l-26 -363zM198 902l-6 535l574 16q664 26 690 -741q-16 -733 -671 -718l-576 12l-6 532l-226 1l20 363h201z" />
    <glyph glyph-name="Emacron" unicode="&#x112;" horiz-adv-x="1218" 
d="M402 894l691 20l-35 -332l-676 -31l-13 -210l763 4l-35 -405l-1099 34l57 1436l1091 21l-31 -336l-700 -23zM279 1542l-5 256l594 9l3 -248z" />
    <glyph glyph-name="emacron" unicode="&#x113;" horiz-adv-x="1218" 
d="M402 894l691 20l-35 -332l-676 -31l-13 -210l763 4l-35 -405l-1099 34l57 1436l1091 21l-31 -336l-700 -23zM279 1542l-6 256l595 9l3 -248z" />
    <glyph glyph-name="Ebreve" unicode="&#x114;" horiz-adv-x="1218" 
d="M402 894l691 20l-35 -332l-676 -31l-13 -210l763 4l-35 -405l-1099 34l57 1436l1091 21l-31 -336l-700 -23zM433 1795q0 -60 41.5 -101.5t100.5 -41.5q58 0 101 42q41 40 42 99l179 -6v-1q0 -135 -96 -230t-229 -95q-135 0 -230 95t-95 230l1 21l185 -6v-6z" />
    <glyph glyph-name="ebreve" unicode="&#x115;" horiz-adv-x="1218" 
d="M402 894l691 20l-35 -332l-676 -31l-13 -210l763 4l-35 -405l-1099 34l57 1436l1091 21l-31 -336l-700 -23zM433 1795q0 -60 41.5 -101.5t101.5 -41.5q57 0 100 42q41 40 42 99l179 -6v-1q0 -135 -96 -230t-229 -95q-135 0 -230 95t-95 230l1 21l185 -6v-6z" />
    <glyph glyph-name="Edotaccent" unicode="&#x116;" horiz-adv-x="1218" 
d="M402 894l691 20l-35 -332l-676 -31l-13 -210l763 4l-35 -405l-1099 34l57 1436l1091 21l-31 -336l-700 -23zM433 1522l-6 284l286 12l4 -275z" />
    <glyph glyph-name="edotaccent" unicode="&#x117;" horiz-adv-x="1218" 
d="M402 894l691 20l-35 -332l-676 -31l-13 -210l763 4l-35 -405l-1099 34l57 1436l1091 21l-31 -336l-700 -23zM433 1522l-6 284l287 12l3 -275z" />
    <glyph glyph-name="Eogonek" unicode="&#x118;" horiz-adv-x="1218" 
d="M402 894l691 20l-35 -332l-676 -31l-13 -210l763 4l-35 -405l-1099 34l57 1436l1091 21l-31 -336l-700 -23zM1129 57l13 -200q-184 -18 -166.5 -92.5t170.5 -53.5l-55 -154q-244 18 -299 190.5t188 207.5l-64 115z" />
    <glyph glyph-name="eogonek" unicode="&#x119;" horiz-adv-x="1218" 
d="M402 894l691 20l-35 -332l-676 -31l-13 -210l763 4l-35 -405l-1099 34l57 1436l1091 21l-31 -336l-700 -23zM1129 57l13 -200q-184 -18 -166.5 -92.5t170.5 -53.5l-55 -154q-244 18 -299 190.5t188 207.5l-64 115z" />
    <glyph glyph-name="Ecaron" unicode="&#x11a;" horiz-adv-x="1218" 
d="M402 894l691 20l-35 -332l-676 -31l-13 -210l763 4l-35 -405l-1099 34l57 1436l1091 21l-31 -336l-700 -23zM572 1639l77 180l225 3l-191 -377h-222l-192 377l225 -3z" />
    <glyph glyph-name="ecaron" unicode="&#x11b;" horiz-adv-x="1218" 
d="M402 894l691 20l-35 -332l-676 -31l-13 -210l763 4l-35 -405l-1099 34l57 1436l1091 21l-31 -336l-700 -23zM572 1639l78 180l225 3l-192 -377h-222l-192 377l225 -3z" />
    <glyph glyph-name="Gcircumflex" unicode="&#x11c;" 
d="M667 -34q-669 4 -690 706q21 781 677 781q599 9 655 -540l-353 27q-22 164 -315 159q-324 -8 -306 -414q17 -379 332 -392q245 -2 264 170l-342 20l17 319l694 -22q9 -823 -633 -814zM643 1638l-74 -171l-213 -2l182 357h210l181 -357l-213 2z" />
    <glyph glyph-name="gcircumflex" unicode="&#x11d;" 
d="M667 -34q-669 4 -690 706q21 781 677 781q599 9 655 -540l-353 27q-22 164 -315 159q-324 -8 -306 -414q17 -379 332 -392q245 -2 264 170l-342 20l17 319l694 -22q9 -823 -633 -814zM643 1638l-74 -171l-213 -2l182 357h210l182 -357l-213 2z" />
    <glyph glyph-name="Gbreve" unicode="&#x11e;" 
d="M667 -34q-669 4 -690 706q21 781 677 781q599 9 655 -540l-353 27q-22 164 -315 159q-324 -8 -306 -414q17 -379 332 -392q245 -2 264 170l-342 20l17 319l694 -22q9 -823 -633 -814zM504 1795q0 -60 41.5 -101.5t100.5 -41.5q58 0 101 42q41 40 42 99l179 -6v-1
q0 -135 -96 -230t-229 -95q-135 0 -230 95t-95 230l1 21l185 -6v-6z" />
    <glyph glyph-name="gbreve" unicode="&#x11f;" 
d="M667 -34q-669 4 -690 706q21 781 677 781q599 9 655 -540l-353 27q-22 164 -315 159q-324 -8 -306 -414q17 -379 332 -392q245 -2 264 170l-342 20l17 319l694 -22q9 -823 -633 -814zM504 1795q0 -60 41.5 -101.5t101.5 -41.5q57 0 100 42q41 40 42 99l179 -6v-1
q0 -135 -96 -230t-229 -95q-135 0 -230 95t-95 230l1 21l185 -6v-6z" />
    <glyph glyph-name="Gdotaccent" unicode="&#x120;" 
d="M667 -34q-669 4 -690 706q21 781 677 781q599 9 655 -540l-353 27q-22 164 -315 159q-324 -8 -306 -414q17 -379 332 -392q245 -2 264 170l-342 20l17 319l694 -22q9 -823 -633 -814zM504 1522l-6 284l286 12l4 -275z" />
    <glyph glyph-name="gdotaccent" unicode="&#x121;" 
d="M667 -34q-669 4 -690 706q21 781 677 781q599 9 655 -540l-353 27q-22 164 -315 159q-324 -8 -306 -414q17 -379 332 -392q245 -2 264 170l-342 20l17 319l694 -22q9 -823 -633 -814zM504 1522l-6 284l287 12l3 -275z" />
    <glyph glyph-name="uni0122" unicode="&#x122;" 
d="M667 -34q-669 4 -690 706q21 781 677 781q599 9 655 -540l-353 27q-22 164 -315 159q-324 -8 -306 -414q17 -379 332 -392q245 -2 264 170l-342 20l17 319l694 -22q9 -823 -633 -814zM646 -301l-102 -8l-5 238l240 10l3 -230l-6 -1q3 -156 -211 -182l-23 90q99 10 104 83
z" />
    <glyph glyph-name="uni0123" unicode="&#x123;" 
d="M667 -34q-669 4 -690 706q21 781 677 781q599 9 655 -540l-353 27q-22 164 -315 159q-324 -8 -306 -414q17 -379 332 -392q245 -2 264 170l-342 20l17 319l694 -22q9 -823 -633 -814zM646 -301l-102 -8l-5 238l240 10l3 -230l-6 -1q3 -156 -211 -182l-23 90q99 10 104 83
z" />
    <glyph glyph-name="Hcircumflex" unicode="&#x124;" horiz-adv-x="1369" 
d="M347 1431l9 -521l544 39l17 500l366 13l-42 -1500l-346 -13v612l-539 -30l21 -544l-358 -9l-13 1436zM645 1638l-74 -171l-213 -2l182 357h210l181 -357l-213 2z" />
    <glyph glyph-name="hcircumflex" unicode="&#x125;" horiz-adv-x="1369" 
d="M347 1431l9 -521l544 39l17 500l366 13l-42 -1500l-346 -13v612l-539 -30l21 -544l-358 -9l-13 1436zM645 1697l-74 -171l-213 -2l182 357h210l181 -357l-213 2z" />
    <glyph glyph-name="Hbar" unicode="&#x126;" horiz-adv-x="1369" 
d="M7 1319l-1 95l341 17l2 -118l563 -9l5 145l366 13l-5 -164l186 -3l-37 -262l-156 3l-30 -1074l-346 -13v612l-539 -30l21 -544l-358 -9l-10 1078l-106 2l28 262zM354 1051l2 -141l544 39l3 93z" />
    <glyph glyph-name="hbar" unicode="&#x127;" horiz-adv-x="1369" 
d="M7 1319l-1 95l341 17l2 -118l563 -9l5 145l366 13l-5 -164l186 -3l-37 -262l-156 3l-30 -1074l-346 -13v612l-539 -30l21 -544l-358 -9l-10 1078l-106 2l28 262zM354 1051l2 -141l544 39l3 93z" />
    <glyph glyph-name="Itilde" unicode="&#x128;" horiz-adv-x="485" 
d="M9 -30l-4 1429l375 16l1 -1417zM-103 1728q166 105 295 5t289 18l7 -196q-178 -106 -295.5 -35.5t-295.5 -8.5v217z" />
    <glyph glyph-name="itilde" unicode="&#x129;" horiz-adv-x="485" 
d="M117 -30l-4 1429l375 16l1 -1417zM5 1728q166 105 295 5t289 18l7 -196q-178 -106 -295.5 -35.5t-295.5 -8.5v217z" />
    <glyph glyph-name="Imacron" unicode="&#x12a;" horiz-adv-x="485" 
d="M9 -30l-4 1429l375 16l1 -1417zM-101 1542l-5 256l594 9l3 -248z" />
    <glyph glyph-name="imacron" unicode="&#x12b;" horiz-adv-x="485" 
d="M120 -30l-4 1429l375 16l1 -1417zM10 1542l-5 256l594 9l3 -248z" />
    <glyph glyph-name="Ibreve" unicode="&#x12c;" horiz-adv-x="485" 
d="M9 -30l-4 1429l375 16l1 -1417zM54 1795q0 -60 41.5 -101.5t100.5 -41.5q58 0 101 42q41 40 42 99l179 -6v-1q0 -135 -96 -230t-229 -95q-135 0 -230 95t-95 230l1 21l185 -6v-6z" />
    <glyph glyph-name="ibreve" unicode="&#x12d;" horiz-adv-x="485" 
d="M146 -30l-4 1429l375 16l1 -1417zM191 1795q0 -60 41 -101.5t101 -41.5q58 0 100 42q42 40 42 99l180 -6v-1q0 -135 -96 -230t-229 -95q-136 0 -230.5 95t-94.5 230v21l186 -6v-6z" />
    <glyph glyph-name="Iogonek" unicode="&#x12e;" horiz-adv-x="485" 
d="M9 -30l-4 1429l375 16l1 -1417zM363 57l13 -200q-184 -18 -166.5 -92.5t170.5 -53.5l-55 -154q-244 18 -299 190.5t188 207.5l-64 115z" />
    <glyph glyph-name="iogonek" unicode="&#x12f;" horiz-adv-x="485" 
d="M9 -30l-4 1457l375 16l1 -1445zM363 57l13 -200q-184 -18 -166.5 -92.5t170.5 -53.5l-55 -154q-244 18 -299 190.5t188 207.5l-64 115z" />
    <glyph glyph-name="Idotaccent" unicode="&#x130;" horiz-adv-x="485" 
d="M9 -30l-4 1429l375 16l1 -1417zM54 1522l-6 284l286 12l4 -275z" />
    <glyph glyph-name="IJ" unicode="&#x132;" horiz-adv-x="1363" 
d="M9 -30l-4 1429l375 16l1 -1417zM697 383q229 17 229 345l9 699h349l-5 -703q-17 -703 -560 -707q-132 1 -237 32l11 430q67 -94 204 -96z" />
    <glyph glyph-name="ij" unicode="&#x133;" horiz-adv-x="1363" 
d="M9 -30l-4 1457l375 16l1 -1445zM697 383q229 17 229 345l9 699h349l-5 -703q-17 -703 -560 -707q-132 1 -237 32l11 430q67 -94 204 -96z" />
    <glyph glyph-name="Jcircumflex" unicode="&#x134;" horiz-adv-x="878" 
d="M212 383q229 17 229 345l9 699h349l-5 -703q-17 -703 -560 -707q-132 1 -237 32l11 430q67 -94 204 -96zM399 1638l-74 -171l-213 -2l182 357h210l181 -357l-213 2z" />
    <glyph glyph-name="jcircumflex" unicode="&#x135;" horiz-adv-x="878" 
d="M212 383q229 17 229 345l9 699h349l-5 -703q-17 -703 -560 -707q-132 1 -237 32l11 430q67 -94 204 -96zM398 1638l-73 -171l-213 -2l181 357h210l182 -357l-213 2z" />
    <glyph glyph-name="uni0136" unicode="&#x136;" horiz-adv-x="1382" 
d="M359 350l-2 -352l-359 -13l13 1457l354 -5l-3 -617l521 600l448 13l-518 -577l496 -871l-448 4l-300 586zM587 -301l-102 -8l-5 238l240 10l3 -230l-6 -1q3 -156 -211 -182l-23 90q99 10 104 83z" />
    <glyph glyph-name="uni0137" unicode="&#x137;" horiz-adv-x="1382" 
d="M359 350l-2 -352l-359 -13l13 1457l354 -5l-3 -617l521 600l448 13l-518 -577l496 -871l-448 4l-300 586zM577 -306l-102 -8l-5 238l240 10l3 -230l-6 -1q3 -156 -211 -182l-23 90q99 10 104 83z" />
    <glyph glyph-name="kgreenlandic" unicode="&#x138;" horiz-adv-x="1382" 
d="M359 350l-2 -352l-359 -13l13 1457l354 -5l-3 -617l521 600l448 13l-518 -577l496 -871l-448 4l-300 586z" />
    <glyph glyph-name="Lacute" unicode="&#x139;" horiz-adv-x="1192" 
d="M433 1487l-64 -1146l763 4l-35 -405l-1099 34l60 1444zM854 1813l-207 -362l-227 4l71 367z" />
    <glyph glyph-name="lacute" unicode="&#x13a;" horiz-adv-x="1192" 
d="M433 1487l-64 -1146l763 4l-35 -405l-1099 34l60 1444zM782 1872l-207 -362l-227 4l71 367z" />
    <glyph glyph-name="uni013B" unicode="&#x13b;" horiz-adv-x="1192" 
d="M433 1487l-64 -1146l763 4l-35 -405l-1099 34l60 1444zM547 -301l-102 -8l-5 238l240 10l3 -230l-6 -1q3 -156 -211 -182l-23 90q99 10 104 83z" />
    <glyph glyph-name="uni013C" unicode="&#x13c;" horiz-adv-x="1192" 
d="M433 1487l-64 -1146l763 4l-35 -405l-1099 34l60 1444zM547 -301l-102 -8l-5 238l240 10l3 -230l-6 -1q3 -156 -211 -182l-23 90q99 10 104 83z" />
    <glyph glyph-name="Lcaron" unicode="&#x13d;" horiz-adv-x="1192" 
d="M433 1487l-64 -1146l763 4l-35 -405l-1099 34l60 1444z" />
    <glyph glyph-name="lcaron" unicode="&#x13e;" horiz-adv-x="1132" 
d="M433 1487l-64 -1146l763 4l-35 -405l-1099 34l60 1444z" />
    <glyph glyph-name="Ldot" unicode="&#x13f;" horiz-adv-x="1192" 
d="M433 1487l-64 -1146l763 4l-35 -405l-1099 34l60 1444zM1139.65 1179.79l-6.7998 316.19l318.741 13.5996l4.25 -305.991z" />
    <glyph glyph-name="ldot" unicode="&#x140;" horiz-adv-x="1192" 
d="M433 1487l-64 -1146l763 4l-35 -405l-1099 34l60 1444zM1139.65 1179.79l-6.7998 316.19l318.741 13.5996l4.25 -305.991z" />
    <glyph glyph-name="Lslash" unicode="&#x141;" horiz-adv-x="1361" 
d="M178 907l21 511l375 69l-33 -591l577 -18l-26 -363l-571 18l-11 -192l763 4l-35 -405l-1099 34l24 570l-170 5l20 363z" />
    <glyph glyph-name="lslash" unicode="&#x142;" horiz-adv-x="1361" 
d="M178 907l21 511l375 69l-33 -591l577 -18l-26 -363l-571 18l-11 -192l763 4l-35 -405l-1099 34l24 570l-170 5l20 363z" />
    <glyph glyph-name="Nacute" unicode="&#x143;" horiz-adv-x="1498" 
d="M357 949l20 -962l-358 -9l-13 1436l453 13l571 -1005l7 1035l366 13l-42 -1500h-462zM994 1813l-207 -362l-227 4l71 367z" />
    <glyph glyph-name="nacute" unicode="&#x144;" horiz-adv-x="1498" 
d="M357 949l20 -962l-358 -9l-13 1436l453 13l571 -1005l7 1035l366 13l-42 -1500h-462zM994 1813l-207 -362l-227 4l71 367z" />
    <glyph glyph-name="uni0145" unicode="&#x145;" horiz-adv-x="1498" 
d="M357 949l20 -962l-358 -9l-13 1436l453 13l571 -1005l7 1035l366 13l-42 -1500h-462zM646 -301l-102 -8l-5 238l240 10l3 -230l-6 -1q3 -156 -211 -182l-23 90q99 10 104 83z" />
    <glyph glyph-name="uni0146" unicode="&#x146;" horiz-adv-x="1498" 
d="M357 949l20 -962l-358 -9l-13 1436l453 13l571 -1005l7 1035l366 13l-42 -1500h-462zM646 -301l-102 -8l-5 238l240 10l3 -230l-6 -1q3 -156 -211 -182l-23 90q99 10 104 83z" />
    <glyph glyph-name="Ncaron" unicode="&#x147;" horiz-adv-x="1498" 
d="M357 949l20 -962l-358 -9l-13 1436l453 13l571 -1005l7 1035l366 13l-42 -1500h-462zM705 1639l77 180l225 3l-191 -377h-222l-192 377l225 -3z" />
    <glyph glyph-name="ncaron" unicode="&#x148;" horiz-adv-x="1498" 
d="M357 949l20 -962l-358 -9l-13 1436l453 13l571 -1005l7 1035l366 13l-42 -1500h-462zM705 1639l77 180l225 3l-192 -377h-221l-192 377l225 -3z" />
    <glyph glyph-name="napostrophe" unicode="&#x149;" horiz-adv-x="1492" 
d="M351 949l20 -962l-358 -9l-13 1436l453 13l571 -1005l7 1035l366 13l-42 -1500h-462z" />
    <glyph glyph-name="Eng" unicode="&#x14a;" horiz-adv-x="1498" 
d="M899 -30l-542 979l20 -962l-358 -9l-13 1436l453 13l571 -1005l7 1035l366 13l-42 -1500h-87q-13 -220 -329 -258l-35 141q147 15 162 117h-173z" />
    <glyph glyph-name="eng" unicode="&#x14b;" horiz-adv-x="1498" 
d="M899 -30l-542 979l20 -962l-358 -9l-13 1436l453 13l571 -1005l7 1035l366 13l-42 -1500h-87q-13 -220 -329 -258l-35 141q147 15 162 117h-173z" />
    <glyph glyph-name="Omacron" unicode="&#x14c;" 
d="M637 1099q-324 -8 -306 -414q17 -379 332 -392q301 26 302 418q-18 393 -328 388zM1306 750q21 -806 -643 -819q-664 -26 -690 741q21 781 677 781q627 9 656 -703zM346 1542l-5 256l594 9l3 -248z" />
    <glyph glyph-name="omacron" unicode="&#x14d;" 
d="M637 1099q-324 -8 -306 -414q17 -379 332 -392q301 26 302 418q-18 393 -328 388zM1306 750q21 -806 -643 -819q-664 -26 -690 741q21 781 677 781q627 9 656 -703zM347 1542l-6 256l595 9l3 -248z" />
    <glyph glyph-name="Obreve" unicode="&#x14e;" 
d="M637 1099q-324 -8 -306 -414q17 -379 332 -392q301 26 302 418q-18 393 -328 388zM1306 750q21 -806 -643 -819q-664 -26 -690 741q21 781 677 781q627 9 656 -703zM501 1795q0 -60 41.5 -101.5t100.5 -41.5q58 0 101 42q41 40 42 99l179 -6v-1q0 -135 -96 -230t-229 -95
q-135 0 -230 95t-95 230l1 21l185 -6v-6z" />
    <glyph glyph-name="obreve" unicode="&#x14f;" 
d="M637 1099q-324 -8 -306 -414q17 -379 332 -392q301 26 302 418q-18 393 -328 388zM1306 750q21 -806 -643 -819q-664 -26 -690 741q21 781 677 781q627 9 656 -703zM501 1795q0 -60 41.5 -101.5t100.5 -41.5q58 0 100 42q42 40 43 99l179 -6v-1q0 -135 -96 -230t-229 -95
q-135 0 -230 95t-95 230v21l186 -6v-6z" />
    <glyph glyph-name="Ohungarumlaut" unicode="&#x150;" 
d="M637 1099q-324 -8 -306 -414q17 -379 332 -392q301 26 302 418q-18 393 -328 388zM1306 750q21 -806 -643 -819q-664 -26 -690 741q21 781 677 781q627 9 656 -703zM648 1813l-187 -362l-206 4l64 367zM1025 1808l-187 -362l-206 4l64 367z" />
    <glyph glyph-name="ohungarumlaut" unicode="&#x151;" 
d="M637 1099q-324 -8 -306 -414q17 -379 332 -392q301 26 302 418q-18 393 -328 388zM1306 750q21 -806 -643 -819q-664 -26 -690 741q21 781 677 781q627 9 656 -703zM648 1813l-188 -362l-205 4l64 367zM1025 1808l-188 -362l-205 4l64 367z" />
    <glyph glyph-name="OE" unicode="&#x152;" horiz-adv-x="2206" 
d="M637 1099q-324 -8 -306 -414q17 -379 332 -392q301 26 302 418q-18 393 -328 388zM948 -15q-122 -51 -285 -54q-664 -26 -690 741q21 781 677 781q210 3 353 -75l2 42l1091 21l-31 -336l-701 -23l-13 -178l692 20l-35 -332l-676 -31l-13 -210l763 4l-35 -405l-1099 34v1z
" />
    <glyph glyph-name="oe" unicode="&#x153;" horiz-adv-x="2206" 
d="M637 1099q-324 -8 -306 -414q17 -379 332 -392q301 26 302 418q-18 393 -328 388zM948 -15q-122 -51 -285 -54q-664 -26 -690 741q21 781 677 781q210 3 353 -75l2 42l1091 21l-31 -336l-701 -23l-13 -178l692 20l-35 -332l-676 -31l-13 -210l763 4l-35 -405l-1099 34v1z
" />
    <glyph glyph-name="Racute" unicode="&#x154;" horiz-adv-x="1179" 
d="M624 1094l-259 -10v-227l252 -27q130 15 140 123q12 144 -133 141zM512 512l-147 4l-12 -545l-357 -18l18 1492l607 -5q472 -7 481 -448q-8 -320 -241 -428q125 -213 249 -611l-375 -22q-115 426 -223 581zM842 1813l-207 -362l-227 4l71 367z" />
    <glyph glyph-name="racute" unicode="&#x155;" horiz-adv-x="1179" 
d="M624 1094l-259 -10v-227l252 -27q130 15 140 123q12 144 -133 141zM512 512l-147 4l-12 -545l-357 -18l18 1492l607 -5q472 -7 481 -448q-8 -320 -241 -428q125 -213 249 -611l-375 -22q-115 426 -223 581zM842 1813l-207 -362l-227 4l71 367z" />
    <glyph glyph-name="uni0156" unicode="&#x156;" horiz-adv-x="1179" 
d="M624 1094l-259 -10v-227l252 -27q130 15 140 123q12 144 -133 141zM512 512l-147 4l-12 -545l-357 -18l18 1492l607 -5q472 -7 481 -448q-8 -320 -241 -428q125 -213 249 -611l-375 -22q-115 426 -223 581zM518 -306l-102 -8l-5 238l240 10l3 -230l-6 -1
q3 -156 -211 -182l-23 90q99 10 104 83z" />
    <glyph glyph-name="uni0157" unicode="&#x157;" horiz-adv-x="1179" 
d="M624 1094l-259 -10v-227l252 -27q130 15 140 123q12 144 -133 141zM512 512l-147 4l-12 -545l-357 -18l18 1492l607 -5q472 -7 481 -448q-8 -320 -241 -428q125 -213 249 -611l-375 -22q-115 426 -223 581zM528 -301l-102 -8l-5 238l240 10l3 -230l-6 -1
q3 -156 -211 -182l-23 90q99 10 104 83z" />
    <glyph glyph-name="Rcaron" unicode="&#x158;" horiz-adv-x="1179" 
d="M624 1094l-259 -10v-227l252 -27q130 15 140 123q12 144 -133 141zM512 512l-147 4l-12 -545l-357 -18l18 1492l607 -5q472 -7 481 -448q-8 -320 -241 -428q125 -213 249 -611l-375 -22q-115 426 -223 581zM553 1639l77 180l225 3l-191 -377h-222l-192 377l225 -3z" />
    <glyph glyph-name="rcaron" unicode="&#x159;" horiz-adv-x="1179" 
d="M624 1094l-259 -10v-227l252 -27q130 15 140 123q12 144 -133 141zM512 512l-147 4l-12 -545l-357 -18l18 1492l607 -5q472 -7 481 -448q-8 -320 -241 -428q125 -213 249 -611l-375 -22q-115 426 -223 581zM553 1639l78 180l225 3l-192 -377h-222l-192 377l225 -3z" />
    <glyph glyph-name="Sacute" unicode="&#x15a;" horiz-adv-x="1179" 
d="M3 970q20 469 504 486q603 19 599 -536l-358 22q8 207 -210 190q-159 -12 -179.5 -105t87.5 -153.5t364 -129.5q261 -100 285 -340q-44 -459 -498 -477q-603 -19 -599 536l332 -22q26 -199 237 -203q145 16 173 106q39 95 -173 157q-570 136 -564 469zM841 1813
l-207 -362l-227 4l71 367z" />
    <glyph glyph-name="sacute" unicode="&#x15b;" horiz-adv-x="1179" 
d="M3 970q20 469 504 486q603 19 599 -536l-358 22q8 207 -210 190q-159 -12 -179.5 -105t87.5 -153.5t364 -129.5q261 -100 285 -340q-44 -459 -498 -477q-603 -19 -599 536l332 -22q26 -199 237 -203q145 16 173 106q39 95 -173 157q-570 136 -564 469zM841 1813
l-207 -362l-227 4l71 367z" />
    <glyph glyph-name="Scircumflex" unicode="&#x15c;" horiz-adv-x="1179" 
d="M3 970q20 469 504 486q603 19 599 -536l-358 22q8 207 -210 190q-159 -12 -179.5 -105t87.5 -153.5t364 -129.5q261 -100 285 -340q-44 -459 -498 -477q-603 -19 -599 536l332 -22q26 -199 237 -203q145 16 173 106q39 95 -173 157q-570 136 -564 469zM552 1638l-74 -171
l-213 -2l182 357h210l181 -357l-213 2z" />
    <glyph glyph-name="scircumflex" unicode="&#x15d;" horiz-adv-x="1179" 
d="M3 970q20 469 504 486q603 19 599 -536l-358 22q8 207 -210 190q-159 -12 -179.5 -105t87.5 -153.5t364 -129.5q261 -100 285 -340q-44 -459 -498 -477q-603 -19 -599 536l332 -22q26 -199 237 -203q145 16 173 106q39 95 -173 157q-570 136 -564 469zM552 1638l-73 -171
l-214 -2l182 357h210l182 -357l-213 2z" />
    <glyph glyph-name="Scedilla" unicode="&#x15e;" horiz-adv-x="1179" 
d="M3 970q20 469 504 486q603 19 599 -536l-358 22q8 207 -210 190q-159 -12 -179.5 -105t87.5 -153.5t364 -129.5q261 -100 285 -340q-44 -459 -498 -477q-603 -19 -599 536l332 -22q26 -199 237 -203q145 16 173 106q39 95 -173 157q-570 136 -564 469zM600 70l-64 -115
q243 -35 188 -207.5t-299 -190.5l-55 154q153 -21 170.5 53.5t-166.5 92.5l13 200z" />
    <glyph glyph-name="scedilla" unicode="&#x15f;" horiz-adv-x="1179" 
d="M3 970q20 469 504 486q603 19 599 -536l-358 22q8 207 -210 190q-159 -12 -179.5 -105t87.5 -153.5t364 -129.5q261 -100 285 -340q-44 -459 -498 -477q-603 -19 -599 536l332 -22q26 -199 237 -203q145 16 173 106q39 95 -173 157q-570 136 -564 469zM600 70l-64 -115
q243 -35 188 -207.5t-299 -190.5l-55 154q153 -21 170.5 53.5t-166.5 92.5l13 200z" />
    <glyph glyph-name="Scaron" unicode="&#x160;" horiz-adv-x="1179" 
d="M3 970q20 469 504 486q603 19 599 -536l-358 22q8 207 -210 190q-159 -12 -179.5 -105t87.5 -153.5t364 -129.5q261 -100 285 -340q-44 -459 -498 -477q-603 -19 -599 536l332 -22q26 -199 237 -203q145 16 173 106q39 95 -173 157q-570 136 -564 469zM552 1639l77 180
l225 3l-191 -377h-222l-192 377l225 -3z" />
    <glyph glyph-name="scaron" unicode="&#x161;" horiz-adv-x="1179" 
d="M3 970q20 469 504 486q603 19 599 -536l-358 22q8 207 -210 190q-159 -12 -179.5 -105t87.5 -153.5t364 -129.5q261 -100 285 -340q-44 -459 -498 -477q-603 -19 -599 536l332 -22q26 -199 237 -203q145 16 173 106q39 95 -173 157q-570 136 -564 469zM552 1639l78 180
l225 3l-192 -377h-222l-192 377l225 -3z" />
    <glyph glyph-name="uni0162" unicode="&#x162;" horiz-adv-x="1279" 
d="M6 1402l1184 25l-17 -349l-432 -13l39 -1108l-350 -39l-35 1134l-402 -30zM639 70l-64 -115q243 -35 188 -207.5t-299 -190.5l-55 154q153 -21 170.5 53.5t-166.5 92.5l13 200z" />
    <glyph glyph-name="uni0163" unicode="&#x163;" horiz-adv-x="1279" 
d="M6 1402l1184 25l-17 -349l-432 -13l39 -1108l-350 -39l-35 1134l-402 -30zM639 70l-64 -115q243 -35 188 -207.5t-299 -190.5l-55 154q153 -21 170.5 53.5t-166.5 92.5l13 200z" />
    <glyph glyph-name="Tcaron" unicode="&#x164;" horiz-adv-x="1279" 
d="M6 1402l1184 25l-17 -349l-432 -13l39 -1108l-350 -39l-35 1134l-402 -30zM592 1639l77 180l225 3l-191 -377h-222l-192 377l225 -3z" />
    <glyph glyph-name="tcaron" unicode="&#x165;" horiz-adv-x="1279" 
d="M6 1402l1184 25l-17 -349l-432 -13l39 -1108l-350 -39l-35 1134l-402 -30zM592 1639l77 180l225 3l-192 -377h-221l-192 377l225 -3z" />
    <glyph glyph-name="Tbar" unicode="&#x166;" horiz-adv-x="1279" 
d="M401 860l-6 192l-402 -30l13 380l1184 25l-17 -349l-432 -13l8 -216l405 -12l-26 -363l-367 11l19 -528l-350 -39l-18 578l-383 12l20 363z" />
    <glyph glyph-name="tbar" unicode="&#x167;" horiz-adv-x="1279" 
d="M401 860l-6 192l-402 -30l13 380l1184 25l-17 -349l-432 -13l8 -216l405 -12l-26 -363l-367 11l19 -528l-350 -39l-18 578l-383 12l20 363z" />
    <glyph glyph-name="Utilde" unicode="&#x168;" horiz-adv-x="1283" 
d="M338 1397l-4 -711q13 -320 267 -324q229 17 229 345l9 699h349l-5 -703q-17 -703 -560 -707q-625 4 -625 685l8 725zM298 1728q166 105 295 5t289 18l7 -196q-178 -106 -295.5 -35.5t-295.5 -8.5v217z" />
    <glyph glyph-name="utilde" unicode="&#x169;" horiz-adv-x="1283" 
d="M338 1397l-4 -711q13 -320 267 -324q229 17 229 345l9 699h349l-5 -703q-17 -703 -560 -707q-625 4 -625 685l8 725zM298 1728q165 105 294.5 5t288.5 18l8 -196q-179 -106 -296.5 -35.5t-294.5 -8.5v217z" />
    <glyph glyph-name="Umacron" unicode="&#x16a;" horiz-adv-x="1283" 
d="M338 1397l-4 -711q13 -320 267 -324q229 17 229 345l9 699h349l-5 -703q-17 -703 -560 -707q-625 4 -625 685l8 725zM300 1542l-5 256l594 9l3 -248z" />
    <glyph glyph-name="umacron" unicode="&#x16b;" horiz-adv-x="1283" 
d="M338 1397l-4 -711q13 -320 267 -324q229 17 229 345l9 699h349l-5 -703q-17 -703 -560 -707q-625 4 -625 685l8 725zM300 1542l-6 256l595 9l3 -248z" />
    <glyph glyph-name="Ubreve" unicode="&#x16c;" horiz-adv-x="1283" 
d="M338 1397l-4 -711q13 -320 267 -324q229 17 229 345l9 699h349l-5 -703q-17 -703 -560 -707q-625 4 -625 685l8 725zM454 1795q0 -60 41.5 -101.5t100.5 -41.5q58 0 101 42q41 40 42 99l179 -6v-1q0 -135 -96 -230t-229 -95q-135 0 -230 95t-95 230l1 21l185 -6v-6z" />
    <glyph glyph-name="ubreve" unicode="&#x16d;" horiz-adv-x="1283" 
d="M338 1397l-4 -711q13 -320 267 -324q229 17 229 345l9 699h349l-5 -703q-17 -703 -560 -707q-625 4 -625 685l8 725zM454 1795q0 -60 41.5 -101.5t101.5 -41.5q57 0 100 42q41 40 42 99l179 -6v-1q0 -135 -96 -230t-229 -95q-135 0 -230 95t-95 230l1 21l185 -6v-6z" />
    <glyph glyph-name="Uring" unicode="&#x16e;" horiz-adv-x="1283" 
d="M338 1397l-4 -711q13 -320 267 -324q229 17 229 345l9 699h349l-5 -703q-17 -703 -560 -707q-625 4 -625 685l8 725zM723.5 1776q54.5 -54 54.5 -130q0 -77 -54.5 -131t-130.5 -54q-77 0 -131 54t-54 131q0 76 54 130t131 54q76 0 130.5 -54zM595 1732q-34 0 -57.5 -24
t-23.5 -57q0 -34 23.5 -57.5t57.5 -23.5q33 0 57 23.5t24 57.5q0 33 -24 57t-57 24z" />
    <glyph glyph-name="uring" unicode="&#x16f;" horiz-adv-x="1283" 
d="M338 1397l-4 -711q13 -320 267 -324q229 17 229 345l9 699h349l-5 -703q-17 -703 -560 -707q-625 4 -625 685l8 725zM724 1776q54 -54 54 -130q0 -77 -54 -131t-131 -54t-131 54t-54 131q0 76 54 130t131 54t131 -54zM595 1732q-34 0 -57.5 -24t-23.5 -57
q0 -34 23.5 -57.5t57.5 -23.5q33 0 57 23.5t24 57.5q0 33 -24 57t-57 24z" />
    <glyph glyph-name="Uhungarumlaut" unicode="&#x170;" horiz-adv-x="1283" 
d="M338 1397l-4 -711q13 -320 267 -324q229 17 229 345l9 699h349l-5 -703q-17 -703 -560 -707q-625 4 -625 685l8 725zM601 1813l-187 -362l-206 4l64 367zM978 1808l-187 -362l-206 4l64 367z" />
    <glyph glyph-name="uhungarumlaut" unicode="&#x171;" horiz-adv-x="1283" 
d="M338 1397l-4 -711q13 -320 267 -324q229 17 229 345l9 699h349l-5 -703q-17 -703 -560 -707q-625 4 -625 685l8 725zM601 1813l-187 -362l-206 4l64 367zM978 1808l-187 -362l-206 4l64 367z" />
    <glyph glyph-name="Uogonek" unicode="&#x172;" horiz-adv-x="1283" 
d="M545 -1q-547 45 -547 682l8 725l332 -9l-4 -711q13 -320 267 -324q229 17 229 345l9 699h349l-5 -703q-16 -645 -475 -702l8 -116q-184 -18 -166.5 -92.5t170.5 -53.5l-55 -154q-244 18 -299 190.5t188 207.5z" />
    <glyph glyph-name="uogonek" unicode="&#x173;" horiz-adv-x="1283" 
d="M545 -1q-547 45 -547 682l8 725l332 -9l-4 -711q13 -320 267 -324q229 17 229 345l9 699h349l-5 -703q-16 -645 -475 -702l8 -116q-184 -18 -166.5 -92.5t170.5 -53.5l-55 -154q-244 18 -299 190.5t188 207.5z" />
    <glyph glyph-name="Wcircumflex" unicode="&#x174;" horiz-adv-x="1788" 
d="M856 471l-93 -488l-422 -4l-348 1448l367 4l201 -919l116 624h351l114 -624l202 918l371 18l-366 -1504l-409 39zM854 1638l-74 -171l-213 -2l182 357h210l181 -357l-213 2z" />
    <glyph glyph-name="wcircumflex" unicode="&#x175;" horiz-adv-x="1788" 
d="M856 471l-93 -488l-422 -4l-348 1448l367 4l201 -919l116 624h351l114 -624l202 918l371 18l-366 -1504l-409 39zM854 1638l-74 -171l-213 -2l182 357h210l182 -357l-213 2z" />
    <glyph glyph-name="Ycircumflex" unicode="&#x176;" horiz-adv-x="1233" 
d="M337 1429l234 -487l248 470l439 43l-516 -902l-13 -568l-359 -25l17 580l-414 880zM616 1638l-74 -171l-213 -2l182 357h210l181 -357l-213 2z" />
    <glyph glyph-name="ycircumflex" unicode="&#x177;" horiz-adv-x="1233" 
d="M337 1429l234 -487l248 470l439 43l-516 -902l-13 -568l-359 -25l17 580l-414 880zM616 1638l-74 -171l-213 -2l182 357h209l182 -357l-213 2z" />
    <glyph glyph-name="Ydieresis" unicode="&#x178;" horiz-adv-x="1233" 
d="M337 1429l234 -487l248 470l439 43l-516 -902l-13 -568l-359 -25l17 580l-414 880zM287 1508l-6 294l297 13l3 -285zM657 1517l-6 294l297 13l3 -285z" />
    <glyph glyph-name="Zacute" unicode="&#x179;" horiz-adv-x="1124" 
d="M-11 1412l1077 17l8 -346l-635 -748l610 -8l-9 -385l-1042 39l4 372l615 718l-619 -22zM821 1813l-207 -362l-227 4l71 367z" />
    <glyph glyph-name="zacute" unicode="&#x17a;" horiz-adv-x="1124" 
d="M-11 1412l1077 17l8 -346l-635 -748l610 -8l-9 -385l-1042 39l4 372l615 718l-619 -22zM821 1813l-207 -362l-227 4l71 367z" />
    <glyph glyph-name="Zdotaccent" unicode="&#x17b;" horiz-adv-x="1124" 
d="M-11 1412l1077 17l8 -346l-635 -748l610 -8l-9 -385l-1042 39l4 372l615 718l-619 -22zM393 1522l-6 284l286 12l4 -275z" />
    <glyph glyph-name="zdotaccent" unicode="&#x17c;" horiz-adv-x="1124" 
d="M-11 1412l1077 17l8 -346l-635 -748l610 -8l-9 -385l-1042 39l4 372l615 718l-619 -22zM393 1522l-6 284l286 12l3 -275z" />
    <glyph glyph-name="Zcaron" unicode="&#x17d;" horiz-adv-x="1124" 
d="M-11 1412l1077 17l8 -346l-635 -748l610 -8l-9 -385l-1042 39l4 372l615 718l-619 -22zM532 1639l77 180l225 3l-191 -377h-222l-192 377l225 -3z" />
    <glyph glyph-name="zcaron" unicode="&#x17e;" horiz-adv-x="1124" 
d="M-11 1412l1077 17l8 -346l-635 -748l610 -8l-9 -385l-1042 39l4 372l615 718l-619 -22zM532 1639l77 180l225 3l-192 -377h-221l-192 377l225 -3z" />
    </font>
</defs>
</svg>
