<?xml version="1.0" standalone="no"?>
<!DOCTYPE svg PUBLIC "-//W3C//DTD SVG 20010904//EN"
 "http://www.w3.org/TR/2001/REC-SVG-20010904/DTD/svg10.dtd">
<svg version="1.0" xmlns="http://www.w3.org/2000/svg"
 width="142.000000pt" height="142.000000pt" viewBox="0 0 142.000000 142.000000"
 preserveAspectRatio="xMidYMid meet">
<metadata>
Created by potrace 1.11, written by Peter Selinger 2001-2013
</metadata>
<g transform="translate(0.000000,142.000000) scale(0.100000,-0.100000)"
fill="#000000" stroke="none">
<path d="M0 710 l0 -710 710 0 710 0 0 710 0 710 -710 0 -710 0 0 -710z m750
604 c132 -41 207 -196 165 -340 -13 -47 -28 -70 -71 -113 -52 -52 -54 -56 -54
-107 l0 -53 53 -24 c74 -34 121 -79 157 -149 27 -55 30 -71 30 -155 l0 -93
-83 0 c-46 0 -186 -3 -310 -7 l-227 -6 0 100 c0 91 3 105 31 161 35 71 94 126
159 152 l45 18 3 83 c3 118 6 126 55 149 53 26 79 61 84 114 11 108 -105 184
-205 132 -17 -9 -39 -31 -48 -49 -26 -51 -45 -67 -78 -67 -37 0 -49 7 -65 38
-25 47 35 151 113 197 75 44 149 49 246 19z m-192 -1054 l142 0 0 -49 c0 -30
5 -51 13 -54 6 -3 -65 -6 -160 -6 -167 -1 -172 0 -187 21 -30 42 -11 104 27
94 12 -3 86 -6 165 -6z"/>
</g>
</svg>
